<svg width="178" height="24" viewBox="0 0 178 24" fill="none" xmlns="http://www.w3.org/2000/svg">
<path d="M3.01291 3.875V11.39H11.8479V13.76H3.01291V23H0.10291V1.505H13.3479V3.875H3.01291ZM25.2874 13.745C25.2874 13.125 25.1974 12.56 25.0174 12.05C24.8474 11.53 24.5924 11.085 24.2524 10.715C23.9224 10.335 23.5174 10.045 23.0374 9.845C22.5574 9.635 22.0124 9.53 21.4024 9.53C20.1224 9.53 19.1074 9.905 18.3574 10.655C17.6174 11.395 17.1574 12.425 16.9774 13.745H25.2874ZM27.4474 20.87C27.1174 21.27 26.7224 21.62 26.2624 21.92C25.8024 22.21 25.3074 22.45 24.7774 22.64C24.2574 22.83 23.7174 22.97 23.1574 23.06C22.5974 23.16 22.0424 23.21 21.4924 23.21C20.4424 23.21 19.4724 23.035 18.5824 22.685C17.7024 22.325 16.9374 21.805 16.2874 21.125C15.6474 20.435 15.1474 19.585 14.7874 18.575C14.4274 17.565 14.2474 16.405 14.2474 15.095C14.2474 14.035 14.4074 13.045 14.7274 12.125C15.0574 11.205 15.5274 10.41 16.1374 9.74C16.7474 9.06 17.4924 8.53 18.3724 8.15C19.2524 7.76 20.2424 7.565 21.3424 7.565C22.2524 7.565 23.0924 7.72 23.8624 8.03C24.6424 8.33 25.3124 8.77 25.8724 9.35C26.4424 9.92 26.8874 10.63 27.2074 11.48C27.5274 12.32 27.6874 13.28 27.6874 14.36C27.6874 14.78 27.6424 15.06 27.5524 15.2C27.4624 15.34 27.2924 15.41 27.0424 15.41H16.8874C16.9174 16.37 17.0474 17.205 17.2774 17.915C17.5174 18.625 17.8474 19.22 18.2674 19.7C18.6874 20.17 19.1874 20.525 19.7674 20.765C20.3474 20.995 20.9974 21.11 21.7174 21.11C22.3874 21.11 22.9624 21.035 23.4424 20.885C23.9324 20.725 24.3524 20.555 24.7024 20.375C25.0524 20.195 25.3424 20.03 25.5724 19.88C25.8124 19.72 26.0174 19.64 26.1874 19.64C26.4074 19.64 26.5774 19.725 26.6974 19.895L27.4474 20.87ZM35.5149 23.24C34.3149 23.24 33.3899 22.905 32.7399 22.235C32.0999 21.565 31.7799 20.6 31.7799 19.34V10.04H29.9499C29.7899 10.04 29.6549 9.995 29.5449 9.905C29.4349 9.805 29.3799 9.655 29.3799 9.455V8.39L31.8699 8.075L32.4849 3.38C32.5149 3.23 32.5799 3.11 32.6799 3.02C32.7899 2.92 32.9299 2.87 33.0999 2.87H34.4499V8.105H38.8449V10.04H34.4499V19.16C34.4499 19.8 34.6049 20.275 34.9149 20.585C35.2249 20.895 35.6249 21.05 36.1149 21.05C36.3949 21.05 36.6349 21.015 36.8349 20.945C37.0449 20.865 37.2249 20.78 37.3749 20.69C37.5249 20.6 37.6499 20.52 37.7499 20.45C37.8599 20.37 37.9549 20.33 38.0349 20.33C38.1749 20.33 38.2999 20.415 38.4099 20.585L39.1899 21.86C38.7299 22.29 38.1749 22.63 37.5249 22.88C36.8749 23.12 36.2049 23.24 35.5149 23.24ZM54.0968 7.805V23H52.5068C52.1268 23 51.8868 22.815 51.7868 22.445L51.5768 20.81C50.9168 21.54 50.1768 22.13 49.3568 22.58C48.5368 23.02 47.5968 23.24 46.5368 23.24C45.7068 23.24 44.9718 23.105 44.3318 22.835C43.7018 22.555 43.1718 22.165 42.7418 21.665C42.3118 21.165 41.9868 20.56 41.7668 19.85C41.5568 19.14 41.4518 18.355 41.4518 17.495V7.805H44.1218V17.495C44.1218 18.645 44.3818 19.535 44.9018 20.165C45.4318 20.795 46.2368 21.11 47.3168 21.11C48.1068 21.11 48.8418 20.925 49.5218 20.555C50.2118 20.175 50.8468 19.655 51.4268 18.995V7.805H54.0968ZM60.8653 10.85C61.3453 9.81 61.9353 9 62.6353 8.42C63.3353 7.83 64.1903 7.535 65.2003 7.535C65.5203 7.535 65.8253 7.57 66.1153 7.64C66.4153 7.71 66.6803 7.82 66.9103 7.97L66.7153 9.965C66.6553 10.215 66.5053 10.34 66.2653 10.34C66.1253 10.34 65.9203 10.31 65.6503 10.25C65.3803 10.19 65.0753 10.16 64.7353 10.16C64.2553 10.16 63.8253 10.23 63.4453 10.37C63.0753 10.51 62.7403 10.72 62.4403 11C62.1503 11.27 61.8853 11.61 61.6453 12.02C61.4153 12.42 61.2053 12.88 61.0153 13.4V23H58.3303V7.805H59.8603C60.1503 7.805 60.3503 7.86 60.4603 7.97C60.5703 8.08 60.6453 8.27 60.6853 8.54L60.8653 10.85ZM78.8128 13.745C78.8128 13.125 78.7228 12.56 78.5428 12.05C78.3728 11.53 78.1178 11.085 77.7778 10.715C77.4478 10.335 77.0428 10.045 76.5628 9.845C76.0828 9.635 75.5378 9.53 74.9278 9.53C73.6478 9.53 72.6328 9.905 71.8828 10.655C71.1428 11.395 70.6828 12.425 70.5028 13.745H78.8128ZM80.9728 20.87C80.6428 21.27 80.2478 21.62 79.7878 21.92C79.3278 22.21 78.8328 22.45 78.3028 22.64C77.7828 22.83 77.2428 22.97 76.6828 23.06C76.1228 23.16 75.5678 23.21 75.0178 23.21C73.9678 23.21 72.9978 23.035 72.1078 22.685C71.2278 22.325 70.4628 21.805 69.8128 21.125C69.1728 20.435 68.6728 19.585 68.3128 18.575C67.9528 17.565 67.7728 16.405 67.7728 15.095C67.7728 14.035 67.9328 13.045 68.2528 12.125C68.5828 11.205 69.0528 10.41 69.6628 9.74C70.2728 9.06 71.0178 8.53 71.8978 8.15C72.7778 7.76 73.7678 7.565 74.8678 7.565C75.7778 7.565 76.6178 7.72 77.3878 8.03C78.1678 8.33 78.8378 8.77 79.3978 9.35C79.9678 9.92 80.4128 10.63 80.7328 11.48C81.0528 12.32 81.2128 13.28 81.2128 14.36C81.2128 14.78 81.1678 15.06 81.0778 15.2C80.9878 15.34 80.8178 15.41 80.5678 15.41H70.4128C70.4428 16.37 70.5728 17.205 70.8028 17.915C71.0428 18.625 71.3728 19.22 71.7928 19.7C72.2128 20.17 72.7128 20.525 73.2928 20.765C73.8728 20.995 74.5228 21.11 75.2428 21.11C75.9128 21.11 76.4878 21.035 76.9678 20.885C77.4578 20.725 77.8778 20.555 78.2278 20.375C78.5778 20.195 78.8678 20.03 79.0978 19.88C79.3378 19.72 79.5428 19.64 79.7128 19.64C79.9328 19.64 80.1028 19.725 80.2228 19.895L80.9728 20.87ZM94.3924 11.42C93.8924 10.75 93.3524 10.285 92.7724 10.025C92.1924 9.755 91.5424 9.62 90.8224 9.62C89.4124 9.62 88.3274 10.125 87.5674 11.135C86.8074 12.145 86.4274 13.585 86.4274 15.455C86.4274 16.445 86.5124 17.295 86.6824 18.005C86.8524 18.705 87.1024 19.285 87.4324 19.745C87.7624 20.195 88.1674 20.525 88.6474 20.735C89.1274 20.945 89.6724 21.05 90.2824 21.05C91.1624 21.05 91.9274 20.85 92.5774 20.45C93.2374 20.05 93.8424 19.485 94.3924 18.755V11.42ZM97.0624 0.904999V23H95.4724C95.0924 23 94.8524 22.815 94.7524 22.445L94.5124 20.6C93.8624 21.38 93.1224 22.01 92.2924 22.49C91.4624 22.97 90.5024 23.21 89.4124 23.21C88.5424 23.21 87.7524 23.045 87.0424 22.715C86.3324 22.375 85.7274 21.88 85.2274 21.23C84.7274 20.58 84.3424 19.77 84.0724 18.8C83.8024 17.83 83.6674 16.715 83.6674 15.455C83.6674 14.335 83.8174 13.295 84.1174 12.335C84.4174 11.365 84.8474 10.525 85.4074 9.815C85.9674 9.105 86.6524 8.55 87.4624 8.15C88.2824 7.74 89.2024 7.535 90.2224 7.535C91.1524 7.535 91.9474 7.695 92.6074 8.015C93.2774 8.325 93.8724 8.76 94.3924 9.32V0.904999H97.0624ZM112.495 23H109.585V1.505H112.495V23ZM121.589 23.24C120.389 23.24 119.464 22.905 118.814 22.235C118.174 21.565 117.854 20.6 117.854 19.34V10.04H116.024C115.864 10.04 115.729 9.995 115.619 9.905C115.509 9.805 115.454 9.655 115.454 9.455V8.39L117.944 8.075L118.559 3.38C118.589 3.23 118.654 3.11 118.754 3.02C118.864 2.92 119.004 2.87 119.174 2.87H120.524V8.105H124.919V10.04H120.524V19.16C120.524 19.8 120.679 20.275 120.989 20.585C121.299 20.895 121.699 21.05 122.189 21.05C122.469 21.05 122.709 21.015 122.909 20.945C123.119 20.865 123.299 20.78 123.449 20.69C123.599 20.6 123.724 20.52 123.824 20.45C123.934 20.37 124.029 20.33 124.109 20.33C124.249 20.33 124.374 20.415 124.484 20.585L125.264 21.86C124.804 22.29 124.249 22.63 123.599 22.88C122.949 23.12 122.279 23.24 121.589 23.24ZM137.758 13.745C137.758 13.125 137.668 12.56 137.488 12.05C137.318 11.53 137.063 11.085 136.723 10.715C136.393 10.335 135.988 10.045 135.508 9.845C135.028 9.635 134.483 9.53 133.873 9.53C132.593 9.53 131.578 9.905 130.828 10.655C130.088 11.395 129.628 12.425 129.448 13.745H137.758ZM139.918 20.87C139.588 21.27 139.193 21.62 138.733 21.92C138.273 22.21 137.778 22.45 137.248 22.64C136.728 22.83 136.188 22.97 135.628 23.06C135.068 23.16 134.513 23.21 133.963 23.21C132.913 23.21 131.943 23.035 131.053 22.685C130.173 22.325 129.408 21.805 128.758 21.125C128.118 20.435 127.618 19.585 127.258 18.575C126.898 17.565 126.718 16.405 126.718 15.095C126.718 14.035 126.878 13.045 127.198 12.125C127.528 11.205 127.998 10.41 128.608 9.74C129.218 9.06 129.963 8.53 130.843 8.15C131.723 7.76 132.713 7.565 133.813 7.565C134.723 7.565 135.563 7.72 136.333 8.03C137.113 8.33 137.783 8.77 138.343 9.35C138.913 9.92 139.358 10.63 139.678 11.48C139.998 12.32 140.158 13.28 140.158 14.36C140.158 14.78 140.113 15.06 140.023 15.2C139.933 15.34 139.763 15.41 139.513 15.41H129.358C129.388 16.37 129.518 17.205 129.748 17.915C129.988 18.625 130.318 19.22 130.738 19.7C131.158 20.17 131.658 20.525 132.238 20.765C132.818 20.995 133.468 21.11 134.188 21.11C134.858 21.11 135.433 21.035 135.913 20.885C136.403 20.725 136.823 20.555 137.173 20.375C137.523 20.195 137.813 20.03 138.043 19.88C138.283 19.72 138.488 19.64 138.658 19.64C138.878 19.64 139.048 19.725 139.168 19.895L139.918 20.87ZM143.438 23V7.805H145.043C145.423 7.805 145.658 7.99 145.748 8.36L145.943 9.92C146.503 9.23 147.133 8.665 147.833 8.225C148.533 7.785 149.343 7.565 150.263 7.565C151.283 7.565 152.108 7.85 152.738 8.42C153.378 8.99 153.838 9.76 154.118 10.73C154.338 10.18 154.618 9.705 154.958 9.305C155.308 8.905 155.698 8.575 156.128 8.315C156.558 8.055 157.013 7.865 157.493 7.745C157.983 7.625 158.478 7.565 158.978 7.565C159.778 7.565 160.488 7.695 161.108 7.955C161.738 8.205 162.268 8.575 162.698 9.065C163.138 9.555 163.473 10.16 163.703 10.88C163.933 11.59 164.048 12.405 164.048 13.325V23H161.363V13.325C161.363 12.135 161.103 11.235 160.583 10.625C160.063 10.005 159.313 9.695 158.333 9.695C157.893 9.695 157.473 9.775 157.073 9.935C156.683 10.085 156.338 10.31 156.038 10.61C155.738 10.91 155.498 11.29 155.318 11.75C155.148 12.2 155.063 12.725 155.063 13.325V23H152.378V13.325C152.378 12.105 152.133 11.195 151.643 10.595C151.153 9.995 150.438 9.695 149.498 9.695C148.838 9.695 148.228 9.875 147.668 10.235C147.108 10.585 146.593 11.065 146.123 11.675V23H143.438ZM176.956 10.31C176.836 10.53 176.651 10.64 176.401 10.64C176.251 10.64 176.081 10.585 175.891 10.475C175.701 10.365 175.466 10.245 175.186 10.115C174.916 9.975 174.591 9.85 174.211 9.74C173.831 9.62 173.381 9.56 172.861 9.56C172.411 9.56 172.006 9.62 171.646 9.74C171.286 9.85 170.976 10.005 170.716 10.205C170.466 10.405 170.271 10.64 170.131 10.91C170.001 11.17 169.936 11.455 169.936 11.765C169.936 12.155 170.046 12.48 170.266 12.74C170.496 13 170.796 13.225 171.166 13.415C171.536 13.605 171.956 13.775 172.426 13.925C172.896 14.065 173.376 14.22 173.866 14.39C174.366 14.55 174.851 14.73 175.321 14.93C175.791 15.13 176.211 15.38 176.581 15.68C176.951 15.98 177.246 16.35 177.466 16.79C177.696 17.22 177.811 17.74 177.811 18.35C177.811 19.05 177.686 19.7 177.436 20.3C177.186 20.89 176.816 21.405 176.326 21.845C175.836 22.275 175.236 22.615 174.526 22.865C173.816 23.115 172.996 23.24 172.066 23.24C171.006 23.24 170.046 23.07 169.186 22.73C168.326 22.38 167.596 21.935 166.996 21.395L167.626 20.375C167.706 20.245 167.801 20.145 167.911 20.075C168.021 20.005 168.161 19.97 168.331 19.97C168.511 19.97 168.701 20.04 168.901 20.18C169.101 20.32 169.341 20.475 169.621 20.645C169.911 20.815 170.261 20.97 170.671 21.11C171.081 21.25 171.591 21.32 172.201 21.32C172.721 21.32 173.176 21.255 173.566 21.125C173.956 20.985 174.281 20.8 174.541 20.57C174.801 20.34 174.991 20.075 175.111 19.775C175.241 19.475 175.306 19.155 175.306 18.815C175.306 18.395 175.191 18.05 174.961 17.78C174.741 17.5 174.446 17.265 174.076 17.075C173.706 16.875 173.281 16.705 172.801 16.565C172.331 16.415 171.846 16.26 171.346 16.1C170.856 15.94 170.371 15.76 169.891 15.56C169.421 15.35 169.001 15.09 168.631 14.78C168.261 14.47 167.961 14.09 167.731 13.64C167.511 13.18 167.401 12.625 167.401 11.975C167.401 11.395 167.521 10.84 167.761 10.31C168.001 9.77 168.351 9.3 168.811 8.9C169.271 8.49 169.836 8.165 170.506 7.925C171.176 7.685 171.941 7.565 172.801 7.565C173.801 7.565 174.696 7.725 175.486 8.045C176.286 8.355 176.976 8.785 177.556 9.335L176.956 10.31Z" fill="#222222"/>
</svg>
