<svg width="336" height="14" viewBox="0 0 336 14" fill="none" xmlns="http://www.w3.org/2000/svg">
<path d="M6.412 2.537C6.37 2.607 6.32333 2.66067 6.272 2.698C6.22533 2.73067 6.167 2.747 6.097 2.747C6.01767 2.747 5.92433 2.70733 5.817 2.628C5.70967 2.54867 5.57433 2.46233 5.411 2.369C5.25233 2.271 5.05867 2.18233 4.83 2.103C4.606 2.02367 4.333 1.984 4.011 1.984C3.70767 1.984 3.43933 2.026 3.206 2.11C2.97733 2.18933 2.78367 2.299 2.625 2.439C2.471 2.579 2.35433 2.74467 2.275 2.936C2.19567 3.12267 2.156 3.32567 2.156 3.545C2.156 3.825 2.22367 4.05833 2.359 4.245C2.499 4.427 2.681 4.58333 2.905 4.714C3.13367 4.84467 3.39033 4.959 3.675 5.057C3.96433 5.15033 4.25833 5.24833 4.557 5.351C4.86033 5.45367 5.15433 5.57033 5.439 5.701C5.72833 5.827 5.985 5.988 6.209 6.184C6.43767 6.38 6.61967 6.62033 6.755 6.905C6.895 7.18967 6.965 7.53967 6.965 7.955C6.965 8.39367 6.89033 8.80667 6.741 9.194C6.59167 9.57667 6.37233 9.91033 6.083 10.195C5.79833 10.4797 5.446 10.7037 5.026 10.867C4.61067 11.0303 4.137 11.112 3.605 11.112C2.95167 11.112 2.359 10.9953 1.827 10.762C1.295 10.524 0.84 10.2043 0.462 9.803L0.854 9.159C0.891333 9.10767 0.935667 9.06567 0.987 9.033C1.043 8.99567 1.10367 8.977 1.169 8.977C1.22967 8.977 1.29733 9.00267 1.372 9.054C1.45133 9.10067 1.54 9.16133 1.638 9.236C1.736 9.31067 1.848 9.39233 1.974 9.481C2.1 9.56967 2.24233 9.65133 2.401 9.726C2.56433 9.80067 2.74867 9.86367 2.954 9.915C3.15933 9.96167 3.39033 9.985 3.647 9.985C3.969 9.985 4.256 9.94067 4.508 9.852C4.76 9.76333 4.97233 9.63967 5.145 9.481C5.32233 9.31767 5.45767 9.124 5.551 8.9C5.64433 8.676 5.691 8.42633 5.691 8.151C5.691 7.84767 5.621 7.60033 5.481 7.409C5.34567 7.213 5.166 7.04967 4.942 6.919C4.718 6.78833 4.46133 6.67867 4.172 6.59C3.88267 6.49667 3.58867 6.40333 3.29 6.31C2.99133 6.212 2.69733 6.1 2.408 5.974C2.11867 5.848 1.862 5.68467 1.638 5.484C1.414 5.28333 1.232 5.03367 1.092 4.735C0.956667 4.43167 0.889 4.05833 0.889 3.615C0.889 3.26033 0.956667 2.91733 1.092 2.586C1.232 2.25467 1.43267 1.96067 1.694 1.704C1.96 1.44733 2.28433 1.242 2.667 1.088C3.05433 0.933999 3.49767 0.856999 3.997 0.856999C4.557 0.856999 5.06567 0.945666 5.523 1.123C5.985 1.30033 6.391 1.557 6.741 1.893L6.412 2.537ZM9.71852 4.854C10.0218 4.532 10.3578 4.27533 10.7265 4.084C11.0952 3.89267 11.5198 3.797 12.0005 3.797C12.3878 3.797 12.7285 3.86233 13.0225 3.993C13.3212 4.119 13.5685 4.301 13.7645 4.539C13.9652 4.77233 14.1168 5.05467 14.2195 5.386C14.3222 5.71733 14.3735 6.08367 14.3735 6.485V11H13.1205V6.485C13.1205 5.94833 12.9968 5.533 12.7495 5.239C12.5068 4.94033 12.1358 4.791 11.6365 4.791C11.2678 4.791 10.9225 4.87967 10.6005 5.057C10.2832 5.23433 9.98918 5.47467 9.71852 5.778V11H8.46552V0.689H9.71852V4.854ZM19.2612 3.797C19.7792 3.797 20.2458 3.88333 20.6612 4.056C21.0765 4.22867 21.4312 4.47367 21.7252 4.791C22.0192 5.10833 22.2432 5.49333 22.3972 5.946C22.5558 6.394 22.6352 6.89567 22.6352 7.451C22.6352 8.011 22.5558 8.515 22.3972 8.963C22.2432 9.411 22.0192 9.79367 21.7252 10.111C21.4312 10.4283 21.0765 10.6733 20.6612 10.846C20.2458 11.014 19.7792 11.098 19.2612 11.098C18.7385 11.098 18.2672 11.014 17.8472 10.846C17.4318 10.6733 17.0772 10.4283 16.7832 10.111C16.4892 9.79367 16.2628 9.411 16.1042 8.963C15.9502 8.515 15.8732 8.011 15.8732 7.451C15.8732 6.89567 15.9502 6.394 16.1042 5.946C16.2628 5.49333 16.4892 5.10833 16.7832 4.791C17.0772 4.47367 17.4318 4.22867 17.8472 4.056C18.2672 3.88333 18.7385 3.797 19.2612 3.797ZM19.2612 10.125C19.9612 10.125 20.4838 9.89167 20.8292 9.425C21.1745 8.95367 21.3472 8.298 21.3472 7.458C21.3472 6.61333 21.1745 5.95533 20.8292 5.484C20.4838 5.01267 19.9612 4.777 19.2612 4.777C18.9065 4.777 18.5962 4.83767 18.3302 4.959C18.0688 5.08033 17.8495 5.25533 17.6722 5.484C17.4995 5.71267 17.3688 5.995 17.2802 6.331C17.1962 6.66233 17.1542 7.038 17.1542 7.458C17.1542 8.298 17.3268 8.95367 17.6722 9.425C18.0222 9.89167 18.5518 10.125 19.2612 10.125ZM25.4685 9.292C25.6972 9.6 25.9468 9.817 26.2175 9.943C26.4882 10.069 26.7915 10.132 27.1275 10.132C27.7902 10.132 28.2988 9.89633 28.6535 9.425C29.0082 8.95367 29.1855 8.28167 29.1855 7.409C29.1855 6.947 29.1435 6.55033 29.0595 6.219C28.9802 5.88767 28.8635 5.617 28.7095 5.407C28.5555 5.19233 28.3665 5.036 28.1425 4.938C27.9185 4.84 27.6642 4.791 27.3795 4.791C26.9735 4.791 26.6165 4.88433 26.3085 5.071C26.0052 5.25767 25.7252 5.52133 25.4685 5.862V9.292ZM25.4055 5.008C25.7042 4.63933 26.0495 4.343 26.4415 4.119C26.8335 3.895 27.2815 3.783 27.7855 3.783C28.1962 3.783 28.5672 3.86233 28.8985 4.021C29.2298 4.175 29.5122 4.406 29.7455 4.714C29.9788 5.01733 30.1585 5.39533 30.2845 5.848C30.4105 6.30067 30.4735 6.821 30.4735 7.409C30.4735 7.93167 30.4035 8.41933 30.2635 8.872C30.1235 9.32 29.9205 9.70967 29.6545 10.041C29.3932 10.3677 29.0712 10.6267 28.6885 10.818C28.3105 11.0047 27.8835 11.098 27.4075 11.098C26.9735 11.098 26.6002 11.0257 26.2875 10.881C25.9795 10.7317 25.7065 10.5263 25.4685 10.265V13.401H24.2155V3.909H24.9645C25.1418 3.909 25.2515 3.99533 25.2935 4.168L25.4055 5.008ZM36.1072 11V4.973L35.3232 4.882C35.2252 4.85867 35.1435 4.82367 35.0782 4.777C35.0175 4.72567 34.9872 4.65333 34.9872 4.56V4.049H36.1072V3.363C36.1072 2.957 36.1632 2.59767 36.2752 2.285C36.3919 1.96767 36.5552 1.70167 36.7652 1.487C36.9799 1.26767 37.2365 1.102 37.5352 0.99C37.8339 0.877999 38.1699 0.821999 38.5432 0.821999C38.8605 0.821999 39.1522 0.868666 39.4182 0.962L39.3902 1.585C39.3809 1.697 39.3179 1.75767 39.2012 1.767C39.0892 1.77633 38.9375 1.781 38.7462 1.781C38.5315 1.781 38.3355 1.809 38.1582 1.865C37.9855 1.921 37.8362 2.012 37.7102 2.138C37.5842 2.264 37.4862 2.42967 37.4162 2.635C37.3509 2.84033 37.3182 3.09467 37.3182 3.398V4.049H39.3622V4.952H37.3602V11H36.1072ZM43.31 3.797C43.828 3.797 44.2947 3.88333 44.71 4.056C45.1253 4.22867 45.48 4.47367 45.774 4.791C46.068 5.10833 46.292 5.49333 46.446 5.946C46.6047 6.394 46.684 6.89567 46.684 7.451C46.684 8.011 46.6047 8.515 46.446 8.963C46.292 9.411 46.068 9.79367 45.774 10.111C45.48 10.4283 45.1253 10.6733 44.71 10.846C44.2947 11.014 43.828 11.098 43.31 11.098C42.7873 11.098 42.316 11.014 41.896 10.846C41.4807 10.6733 41.126 10.4283 40.832 10.111C40.538 9.79367 40.3117 9.411 40.153 8.963C39.999 8.515 39.922 8.011 39.922 7.451C39.922 6.89567 39.999 6.394 40.153 5.946C40.3117 5.49333 40.538 5.10833 40.832 4.791C41.126 4.47367 41.4807 4.22867 41.896 4.056C42.316 3.88333 42.7873 3.797 43.31 3.797ZM43.31 10.125C44.01 10.125 44.5327 9.89167 44.878 9.425C45.2233 8.95367 45.396 8.298 45.396 7.458C45.396 6.61333 45.2233 5.95533 44.878 5.484C44.5327 5.01267 44.01 4.777 43.31 4.777C42.9553 4.777 42.645 4.83767 42.379 4.959C42.1177 5.08033 41.8983 5.25533 41.721 5.484C41.5483 5.71267 41.4177 5.995 41.329 6.331C41.245 6.66233 41.203 7.038 41.203 7.458C41.203 8.298 41.3757 8.95367 41.721 9.425C42.071 9.89167 42.6007 10.125 43.31 10.125ZM49.4473 5.33C49.6713 4.84467 49.9467 4.46667 50.2733 4.196C50.6 3.92067 50.999 3.783 51.4703 3.783C51.6197 3.783 51.762 3.79933 51.8973 3.832C52.0373 3.86467 52.161 3.916 52.2683 3.986L52.1773 4.917C52.1493 5.03367 52.0793 5.092 51.9673 5.092C51.902 5.092 51.8063 5.078 51.6803 5.05C51.5543 5.022 51.412 5.008 51.2533 5.008C51.0293 5.008 50.8287 5.04067 50.6513 5.106C50.4787 5.17133 50.3223 5.26933 50.1823 5.4C50.047 5.526 49.9233 5.68467 49.8113 5.876C49.704 6.06267 49.606 6.27733 49.5173 6.52V11H48.2643V3.909H48.9783C49.1137 3.909 49.207 3.93467 49.2583 3.986C49.3097 4.03733 49.3447 4.126 49.3633 4.252L49.4473 5.33ZM57.9612 3.909V11H56.7152V3.909H57.9612ZM58.2272 1.683C58.2272 1.80433 58.2015 1.91867 58.1502 2.026C58.1035 2.12867 58.0382 2.222 57.9542 2.306C57.8749 2.38533 57.7792 2.44833 57.6672 2.495C57.5599 2.54167 57.4455 2.565 57.3242 2.565C57.2029 2.565 57.0885 2.54167 56.9812 2.495C56.8785 2.44833 56.7875 2.38533 56.7082 2.306C56.6289 2.222 56.5659 2.12867 56.5192 2.026C56.4725 1.91867 56.4492 1.80433 56.4492 1.683C56.4492 1.56167 56.4725 1.44733 56.5192 1.34C56.5659 1.228 56.6289 1.13233 56.7082 1.053C56.7875 0.969 56.8785 0.903666 56.9812 0.856999C57.0885 0.810333 57.2029 0.786999 57.3242 0.786999C57.4455 0.786999 57.5599 0.810333 57.6672 0.856999C57.7792 0.903666 57.8749 0.969 57.9542 1.053C58.0382 1.13233 58.1035 1.228 58.1502 1.34C58.2015 1.44733 58.2272 1.56167 58.2272 1.683ZM62.1855 11.112C61.6255 11.112 61.1938 10.9557 60.8905 10.643C60.5918 10.3303 60.4425 9.88 60.4425 9.292V4.952H59.5885C59.5138 4.952 59.4508 4.931 59.3995 4.889C59.3482 4.84233 59.3225 4.77233 59.3225 4.679V4.182L60.4845 4.035L60.7715 1.844C60.7855 1.774 60.8158 1.718 60.8625 1.676C60.9138 1.62933 60.9792 1.606 61.0585 1.606H61.6885V4.049H63.7395V4.952H61.6885V9.208C61.6885 9.50667 61.7608 9.72833 61.9055 9.873C62.0502 10.0177 62.2368 10.09 62.4655 10.09C62.5962 10.09 62.7082 10.0737 62.8015 10.041C62.8995 10.0037 62.9835 9.964 63.0535 9.922C63.1235 9.88 63.1818 9.84267 63.2285 9.81C63.2798 9.77267 63.3242 9.754 63.3615 9.754C63.4268 9.754 63.4852 9.79367 63.5365 9.873L63.9005 10.468C63.6858 10.6687 63.4268 10.8273 63.1235 10.944C62.8202 11.056 62.5075 11.112 62.1855 11.112ZM69.731 6.681C69.731 6.39167 69.689 6.128 69.605 5.89C69.5257 5.64733 69.4067 5.43967 69.248 5.267C69.094 5.08967 68.905 4.95433 68.681 4.861C68.457 4.763 68.2027 4.714 67.918 4.714C67.3207 4.714 66.847 4.889 66.497 5.239C66.1517 5.58433 65.937 6.065 65.853 6.681H69.731ZM70.739 10.006C70.585 10.1927 70.4007 10.356 70.186 10.496C69.9714 10.6313 69.7404 10.7433 69.493 10.832C69.2504 10.9207 68.9984 10.986 68.737 11.028C68.4757 11.0747 68.2167 11.098 67.96 11.098C67.47 11.098 67.0174 11.0163 66.602 10.853C66.1914 10.685 65.8344 10.4423 65.531 10.125C65.2324 9.803 64.999 9.40633 64.831 8.935C64.663 8.46367 64.579 7.92233 64.579 7.311C64.579 6.81633 64.6537 6.35433 64.803 5.925C64.957 5.49567 65.1764 5.12467 65.461 4.812C65.7457 4.49467 66.0934 4.24733 66.504 4.07C66.9147 3.888 67.3767 3.797 67.89 3.797C68.3147 3.797 68.7067 3.86933 69.066 4.014C69.43 4.154 69.7427 4.35933 70.004 4.63C70.27 4.896 70.4777 5.22733 70.627 5.624C70.7764 6.016 70.851 6.464 70.851 6.968C70.851 7.164 70.83 7.29467 70.788 7.36C70.746 7.42533 70.6667 7.458 70.55 7.458H65.811C65.825 7.906 65.8857 8.29567 65.993 8.627C66.105 8.95833 66.259 9.236 66.455 9.46C66.651 9.67933 66.8844 9.845 67.155 9.957C67.4257 10.0643 67.729 10.118 68.065 10.118C68.3777 10.118 68.646 10.083 68.87 10.013C69.0987 9.93833 69.2947 9.859 69.458 9.775C69.6214 9.691 69.7567 9.614 69.864 9.544C69.976 9.46933 70.0717 9.432 70.151 9.432C70.2537 9.432 70.333 9.47167 70.389 9.551L70.739 10.006ZM72.3815 11V3.909H73.1305C73.3079 3.909 73.4175 3.99533 73.4595 4.168L73.5505 4.896C73.8119 4.574 74.1059 4.31033 74.4325 4.105C74.7592 3.89967 75.1372 3.797 75.5665 3.797C76.0425 3.797 76.4275 3.93 76.7215 4.196C77.0202 4.462 77.2349 4.82133 77.3655 5.274C77.4682 5.01733 77.5989 4.79567 77.7575 4.609C77.9209 4.42233 78.1029 4.26833 78.3035 4.147C78.5042 4.02567 78.7165 3.937 78.9405 3.881C79.1692 3.825 79.4002 3.797 79.6335 3.797C80.0069 3.797 80.3382 3.85767 80.6275 3.979C80.9215 4.09567 81.1689 4.26833 81.3695 4.497C81.5749 4.72567 81.7312 5.008 81.8385 5.344C81.9459 5.67533 81.9995 6.05567 81.9995 6.485V11H80.7465V6.485C80.7465 5.92967 80.6252 5.50967 80.3825 5.225C80.1399 4.93567 79.7899 4.791 79.3325 4.791C79.1272 4.791 78.9312 4.82833 78.7445 4.903C78.5625 4.973 78.4015 5.078 78.2615 5.218C78.1215 5.358 78.0095 5.53533 77.9255 5.75C77.8462 5.96 77.8065 6.205 77.8065 6.485V11H76.5535V6.485C76.5535 5.91567 76.4392 5.491 76.2105 5.211C75.9819 4.931 75.6482 4.791 75.2095 4.791C74.9015 4.791 74.6169 4.875 74.3555 5.043C74.0942 5.20633 73.8539 5.43033 73.6345 5.715V11H72.3815ZM88.0233 5.078C87.9673 5.18067 87.8809 5.232 87.7643 5.232C87.6943 5.232 87.6149 5.20633 87.5263 5.155C87.4376 5.10367 87.3279 5.04767 87.1973 4.987C87.0713 4.92167 86.9196 4.86333 86.7423 4.812C86.5649 4.756 86.3549 4.728 86.1123 4.728C85.9023 4.728 85.7133 4.756 85.5453 4.812C85.3773 4.86333 85.2326 4.93567 85.1113 5.029C84.9946 5.12233 84.9036 5.232 84.8383 5.358C84.7776 5.47933 84.7473 5.61233 84.7473 5.757C84.7473 5.939 84.7986 6.09067 84.9013 6.212C85.0086 6.33333 85.1486 6.43833 85.3213 6.527C85.4939 6.61567 85.6899 6.695 85.9093 6.765C86.1286 6.83033 86.3526 6.90267 86.5813 6.982C86.8146 7.05667 87.0409 7.14067 87.2603 7.234C87.4796 7.32733 87.6756 7.444 87.8483 7.584C88.0209 7.724 88.1586 7.89667 88.2613 8.102C88.3686 8.30267 88.4223 8.54533 88.4223 8.83C88.4223 9.15667 88.3639 9.46 88.2473 9.74C88.1306 10.0153 87.9579 10.2557 87.7293 10.461C87.5006 10.6617 87.2206 10.8203 86.8893 10.937C86.5579 11.0537 86.1753 11.112 85.7413 11.112C85.2466 11.112 84.7986 11.0327 84.3973 10.874C83.9959 10.7107 83.6553 10.503 83.3753 10.251L83.6693 9.775C83.7066 9.71433 83.7509 9.66767 83.8023 9.635C83.8536 9.60233 83.9189 9.586 83.9983 9.586C84.0823 9.586 84.1709 9.61867 84.2643 9.684C84.3576 9.74933 84.4696 9.82167 84.6003 9.901C84.7356 9.98033 84.8989 10.0527 85.0903 10.118C85.2816 10.1833 85.5196 10.216 85.8043 10.216C86.0469 10.216 86.2593 10.1857 86.4412 10.125C86.6233 10.0597 86.7749 9.97333 86.8963 9.866C87.0176 9.75867 87.1063 9.635 87.1623 9.495C87.2229 9.355 87.2533 9.20567 87.2533 9.047C87.2533 8.851 87.1996 8.69 87.0923 8.564C86.9896 8.43333 86.8519 8.32367 86.6793 8.235C86.5066 8.14167 86.3083 8.06233 86.0843 7.997C85.8649 7.927 85.6386 7.85467 85.4053 7.78C85.1766 7.70533 84.9503 7.62133 84.7263 7.528C84.5069 7.43 84.3109 7.30867 84.1383 7.164C83.9656 7.01933 83.8256 6.842 83.7183 6.632C83.6156 6.41733 83.5643 6.15833 83.5643 5.855C83.5643 5.58433 83.6203 5.32533 83.7323 5.078C83.8443 4.826 84.0076 4.60667 84.2223 4.42C84.4369 4.22867 84.7006 4.077 85.0133 3.965C85.3259 3.853 85.6829 3.797 86.0843 3.797C86.5509 3.797 86.9686 3.87167 87.3373 4.021C87.7106 4.16567 88.0326 4.36633 88.3033 4.623L88.0233 5.078ZM94.7849 9.292C95.0136 9.6 95.2633 9.817 95.5339 9.943C95.8093 10.069 96.1103 10.132 96.4369 10.132C97.1043 10.132 97.6153 9.89633 97.9699 9.425C98.3246 8.95367 98.5019 8.25133 98.5019 7.318C98.5019 6.45 98.3433 5.813 98.0259 5.407C97.7133 4.99633 97.2653 4.791 96.6819 4.791C96.2759 4.791 95.9213 4.88433 95.6179 5.071C95.3193 5.25767 95.0416 5.52133 94.7849 5.862V9.292ZM94.7849 4.931C95.0836 4.58567 95.4196 4.31033 95.7929 4.105C96.1709 3.89967 96.6049 3.797 97.0949 3.797C97.5103 3.797 97.8836 3.87633 98.2149 4.035C98.5509 4.19367 98.8356 4.42467 99.0689 4.728C99.3023 5.02667 99.4796 5.39067 99.6009 5.82C99.7269 6.24933 99.7899 6.73233 99.7899 7.269C99.7899 7.843 99.7199 8.36567 99.5799 8.837C99.4399 9.30833 99.2369 9.712 98.9709 10.048C98.7096 10.3793 98.3899 10.6383 98.0119 10.825C97.6339 11.007 97.2093 11.098 96.7379 11.098C96.2713 11.098 95.8769 11.0117 95.5549 10.839C95.2376 10.6617 94.9599 10.412 94.7219 10.09L94.6589 10.734C94.6216 10.9113 94.5143 11 94.3369 11H93.5319V0.689H94.7849V4.931ZM105.209 7.808C104.635 7.82667 104.145 7.87333 103.739 7.948C103.338 8.018 103.009 8.11133 102.752 8.228C102.5 8.34467 102.316 8.48233 102.199 8.641C102.087 8.79967 102.031 8.977 102.031 9.173C102.031 9.35967 102.061 9.52067 102.122 9.656C102.183 9.79133 102.264 9.90333 102.367 9.992C102.474 10.076 102.598 10.139 102.738 10.181C102.883 10.2183 103.037 10.237 103.2 10.237C103.419 10.237 103.62 10.216 103.802 10.174C103.984 10.1273 104.154 10.062 104.313 9.978C104.476 9.894 104.63 9.79367 104.775 9.677C104.924 9.56033 105.069 9.42733 105.209 9.278V7.808ZM101.184 4.91C101.576 4.532 101.998 4.24967 102.451 4.063C102.904 3.87633 103.405 3.783 103.956 3.783C104.353 3.783 104.705 3.84833 105.013 3.979C105.321 4.10967 105.58 4.29167 105.79 4.525C106 4.75833 106.159 5.04067 106.266 5.372C106.373 5.70333 106.427 6.06733 106.427 6.464V11H105.874C105.753 11 105.659 10.9813 105.594 10.944C105.529 10.902 105.477 10.8227 105.44 10.706L105.3 10.034C105.113 10.2067 104.931 10.3607 104.754 10.496C104.577 10.6267 104.39 10.7387 104.194 10.832C103.998 10.9207 103.788 10.9883 103.564 11.035C103.345 11.0863 103.1 11.112 102.829 11.112C102.554 11.112 102.295 11.0747 102.052 11C101.809 10.9207 101.597 10.804 101.415 10.65C101.238 10.496 101.095 10.3023 100.988 10.069C100.885 9.831 100.834 9.551 100.834 9.229C100.834 8.949 100.911 8.68067 101.065 8.424C101.219 8.16267 101.469 7.93167 101.814 7.731C102.159 7.53033 102.61 7.367 103.165 7.241C103.72 7.11033 104.402 7.03567 105.209 7.017V6.464C105.209 5.91333 105.09 5.498 104.852 5.218C104.614 4.93333 104.266 4.791 103.809 4.791C103.501 4.791 103.242 4.83067 103.032 4.91C102.827 4.98467 102.647 5.071 102.493 5.169C102.344 5.26233 102.213 5.34867 102.101 5.428C101.994 5.50267 101.886 5.54 101.779 5.54C101.695 5.54 101.623 5.519 101.562 5.477C101.501 5.43033 101.45 5.37433 101.408 5.309L101.184 4.91ZM112.455 5.078C112.399 5.18067 112.313 5.232 112.196 5.232C112.126 5.232 112.047 5.20633 111.958 5.155C111.869 5.10367 111.76 5.04767 111.629 4.987C111.503 4.92167 111.351 4.86333 111.174 4.812C110.997 4.756 110.787 4.728 110.544 4.728C110.334 4.728 110.145 4.756 109.977 4.812C109.809 4.86333 109.664 4.93567 109.543 5.029C109.426 5.12233 109.335 5.232 109.27 5.358C109.209 5.47933 109.179 5.61233 109.179 5.757C109.179 5.939 109.23 6.09067 109.333 6.212C109.44 6.33333 109.58 6.43833 109.753 6.527C109.926 6.61567 110.122 6.695 110.341 6.765C110.56 6.83033 110.784 6.90267 111.013 6.982C111.246 7.05667 111.473 7.14067 111.692 7.234C111.911 7.32733 112.107 7.444 112.28 7.584C112.453 7.724 112.59 7.89667 112.693 8.102C112.8 8.30267 112.854 8.54533 112.854 8.83C112.854 9.15667 112.796 9.46 112.679 9.74C112.562 10.0153 112.39 10.2557 112.161 10.461C111.932 10.6617 111.652 10.8203 111.321 10.937C110.99 11.0537 110.607 11.112 110.173 11.112C109.678 11.112 109.23 11.0327 108.829 10.874C108.428 10.7107 108.087 10.503 107.807 10.251L108.101 9.775C108.138 9.71433 108.183 9.66767 108.234 9.635C108.285 9.60233 108.351 9.586 108.43 9.586C108.514 9.586 108.603 9.61867 108.696 9.684C108.789 9.74933 108.901 9.82167 109.032 9.901C109.167 9.98033 109.331 10.0527 109.522 10.118C109.713 10.1833 109.951 10.216 110.236 10.216C110.479 10.216 110.691 10.1857 110.873 10.125C111.055 10.0597 111.207 9.97333 111.328 9.866C111.449 9.75867 111.538 9.635 111.594 9.495C111.655 9.355 111.685 9.20567 111.685 9.047C111.685 8.851 111.631 8.69 111.524 8.564C111.421 8.43333 111.284 8.32367 111.111 8.235C110.938 8.14167 110.74 8.06233 110.516 7.997C110.297 7.927 110.07 7.85467 109.837 7.78C109.608 7.70533 109.382 7.62133 109.158 7.528C108.939 7.43 108.743 7.30867 108.57 7.164C108.397 7.01933 108.257 6.842 108.15 6.632C108.047 6.41733 107.996 6.15833 107.996 5.855C107.996 5.58433 108.052 5.32533 108.164 5.078C108.276 4.826 108.439 4.60667 108.654 4.42C108.869 4.22867 109.132 4.077 109.445 3.965C109.758 3.853 110.115 3.797 110.516 3.797C110.983 3.797 111.4 3.87167 111.769 4.021C112.142 4.16567 112.464 4.36633 112.735 4.623L112.455 5.078ZM119.128 6.681C119.128 6.39167 119.086 6.128 119.002 5.89C118.922 5.64733 118.803 5.43967 118.645 5.267C118.491 5.08967 118.302 4.95433 118.078 4.861C117.854 4.763 117.599 4.714 117.315 4.714C116.717 4.714 116.244 4.889 115.894 5.239C115.548 5.58433 115.334 6.065 115.25 6.681H119.128ZM120.136 10.006C119.982 10.1927 119.797 10.356 119.583 10.496C119.368 10.6313 119.137 10.7433 118.89 10.832C118.647 10.9207 118.395 10.986 118.134 11.028C117.872 11.0747 117.613 11.098 117.357 11.098C116.867 11.098 116.414 11.0163 115.999 10.853C115.588 10.685 115.231 10.4423 114.928 10.125C114.629 9.803 114.396 9.40633 114.228 8.935C114.06 8.46367 113.976 7.92233 113.976 7.311C113.976 6.81633 114.05 6.35433 114.2 5.925C114.354 5.49567 114.573 5.12467 114.858 4.812C115.142 4.49467 115.49 4.24733 115.901 4.07C116.311 3.888 116.773 3.797 117.287 3.797C117.711 3.797 118.103 3.86933 118.463 4.014C118.827 4.154 119.139 4.35933 119.401 4.63C119.667 4.896 119.874 5.22733 120.024 5.624C120.173 6.016 120.248 6.464 120.248 6.968C120.248 7.164 120.227 7.29467 120.185 7.36C120.143 7.42533 120.063 7.458 119.947 7.458H115.208C115.222 7.906 115.282 8.29567 115.39 8.627C115.502 8.95833 115.656 9.236 115.852 9.46C116.048 9.67933 116.281 9.845 116.552 9.957C116.822 10.0643 117.126 10.118 117.462 10.118C117.774 10.118 118.043 10.083 118.267 10.013C118.495 9.93833 118.691 9.859 118.855 9.775C119.018 9.691 119.153 9.614 119.261 9.544C119.373 9.46933 119.468 9.432 119.548 9.432C119.65 9.432 119.73 9.47167 119.786 9.551L120.136 10.006ZM126.398 5.596C126.165 5.28333 125.913 5.06633 125.642 4.945C125.371 4.819 125.068 4.756 124.732 4.756C124.074 4.756 123.568 4.99167 123.213 5.463C122.858 5.93433 122.681 6.60633 122.681 7.479C122.681 7.941 122.721 8.33767 122.8 8.669C122.879 8.99567 122.996 9.26633 123.15 9.481C123.304 9.691 123.493 9.845 123.717 9.943C123.941 10.041 124.195 10.09 124.48 10.09C124.891 10.09 125.248 9.99667 125.551 9.81C125.859 9.62333 126.141 9.35967 126.398 9.019V5.596ZM127.644 0.689V11H126.902C126.725 11 126.613 10.9137 126.566 10.741L126.454 9.88C126.151 10.244 125.805 10.538 125.418 10.762C125.031 10.986 124.583 11.098 124.074 11.098C123.668 11.098 123.299 11.021 122.968 10.867C122.637 10.7083 122.354 10.4773 122.121 10.174C121.888 9.87067 121.708 9.49267 121.582 9.04C121.456 8.58733 121.393 8.067 121.393 7.479C121.393 6.95633 121.463 6.471 121.603 6.023C121.743 5.57033 121.944 5.17833 122.205 4.847C122.466 4.51567 122.786 4.25667 123.164 4.07C123.547 3.87867 123.976 3.783 124.452 3.783C124.886 3.783 125.257 3.85767 125.565 4.007C125.878 4.15167 126.155 4.35467 126.398 4.616V0.689H127.644ZM136.183 3.797C136.701 3.797 137.168 3.88333 137.583 4.056C137.998 4.22867 138.353 4.47367 138.647 4.791C138.941 5.10833 139.165 5.49333 139.319 5.946C139.478 6.394 139.557 6.89567 139.557 7.451C139.557 8.011 139.478 8.515 139.319 8.963C139.165 9.411 138.941 9.79367 138.647 10.111C138.353 10.4283 137.998 10.6733 137.583 10.846C137.168 11.014 136.701 11.098 136.183 11.098C135.66 11.098 135.189 11.014 134.769 10.846C134.354 10.6733 133.999 10.4283 133.705 10.111C133.411 9.79367 133.185 9.411 133.026 8.963C132.872 8.515 132.795 8.011 132.795 7.451C132.795 6.89567 132.872 6.394 133.026 5.946C133.185 5.49333 133.411 5.10833 133.705 4.791C133.999 4.47367 134.354 4.22867 134.769 4.056C135.189 3.88333 135.66 3.797 136.183 3.797ZM136.183 10.125C136.883 10.125 137.406 9.89167 137.751 9.425C138.096 8.95367 138.269 8.298 138.269 7.458C138.269 6.61333 138.096 5.95533 137.751 5.484C137.406 5.01267 136.883 4.777 136.183 4.777C135.828 4.777 135.518 4.83767 135.252 4.959C134.991 5.08033 134.771 5.25533 134.594 5.484C134.421 5.71267 134.291 5.995 134.202 6.331C134.118 6.66233 134.076 7.038 134.076 7.458C134.076 8.298 134.249 8.95367 134.594 9.425C134.944 9.89167 135.474 10.125 136.183 10.125ZM142.313 4.938C142.467 4.76533 142.631 4.609 142.803 4.469C142.976 4.329 143.158 4.21 143.349 4.112C143.545 4.00933 143.751 3.93233 143.965 3.881C144.185 3.825 144.42 3.797 144.672 3.797C145.06 3.797 145.4 3.86233 145.694 3.993C145.993 4.119 146.24 4.301 146.436 4.539C146.637 4.77233 146.789 5.05467 146.891 5.386C146.994 5.71733 147.045 6.08367 147.045 6.485V11H145.792V6.485C145.792 5.94833 145.669 5.533 145.421 5.239C145.179 4.94033 144.808 4.791 144.308 4.791C143.94 4.791 143.594 4.87967 143.272 5.057C142.955 5.23433 142.661 5.47467 142.39 5.778V11H141.137V3.909H141.886C142.064 3.909 142.173 3.99533 142.215 4.168L142.313 4.938ZM162.018 3.909L159.722 11H158.735C158.614 11 158.53 10.9207 158.483 10.762L156.915 5.953C156.878 5.84567 156.847 5.73833 156.824 5.631C156.801 5.519 156.777 5.40933 156.754 5.302C156.731 5.40933 156.707 5.519 156.684 5.631C156.661 5.73833 156.63 5.848 156.593 5.96L154.997 10.762C154.955 10.9207 154.862 11 154.717 11H153.779L151.483 3.909H152.463C152.561 3.909 152.643 3.93467 152.708 3.986C152.778 4.03733 152.825 4.098 152.848 4.168L154.206 8.732C154.285 9.068 154.348 9.38533 154.395 9.684C154.437 9.53 154.479 9.37367 154.521 9.215C154.568 9.05633 154.617 8.89533 154.668 8.732L156.166 4.14C156.189 4.07 156.229 4.01167 156.285 3.965C156.346 3.91833 156.418 3.895 156.502 3.895H157.048C157.141 3.895 157.218 3.91833 157.279 3.965C157.34 4.01167 157.382 4.07 157.405 4.14L158.868 8.732C158.919 8.89533 158.966 9.05633 159.008 9.215C159.05 9.37367 159.09 9.53 159.127 9.684C159.15 9.53 159.178 9.376 159.211 9.222C159.248 9.06333 159.288 8.9 159.33 8.732L160.716 4.168C160.739 4.09333 160.784 4.03267 160.849 3.986C160.914 3.93467 160.991 3.909 161.08 3.909H162.018ZM164.484 4.854C164.787 4.532 165.123 4.27533 165.492 4.084C165.861 3.89267 166.285 3.797 166.766 3.797C167.153 3.797 167.494 3.86233 167.788 3.993C168.087 4.119 168.334 4.301 168.53 4.539C168.731 4.77233 168.882 5.05467 168.985 5.386C169.088 5.71733 169.139 6.08367 169.139 6.485V11H167.886V6.485C167.886 5.94833 167.762 5.533 167.515 5.239C167.272 4.94033 166.901 4.791 166.402 4.791C166.033 4.791 165.688 4.87967 165.366 5.057C165.049 5.23433 164.755 5.47467 164.484 5.778V11H163.231V0.689H164.484V4.854ZM174.881 7.808C174.307 7.82667 173.817 7.87333 173.411 7.948C173.009 8.018 172.68 8.11133 172.424 8.228C172.172 8.34467 171.987 8.48233 171.871 8.641C171.759 8.79967 171.703 8.977 171.703 9.173C171.703 9.35967 171.733 9.52067 171.794 9.656C171.854 9.79133 171.936 9.90333 172.039 9.992C172.146 10.076 172.27 10.139 172.41 10.181C172.554 10.2183 172.708 10.237 172.872 10.237C173.091 10.237 173.292 10.216 173.474 10.174C173.656 10.1273 173.826 10.062 173.985 9.978C174.148 9.894 174.302 9.79367 174.447 9.677C174.596 9.56033 174.741 9.42733 174.881 9.278V7.808ZM170.856 4.91C171.248 4.532 171.67 4.24967 172.123 4.063C172.575 3.87633 173.077 3.783 173.628 3.783C174.024 3.783 174.377 3.84833 174.685 3.979C174.993 4.10967 175.252 4.29167 175.462 4.525C175.672 4.75833 175.83 5.04067 175.938 5.372C176.045 5.70333 176.099 6.06733 176.099 6.464V11H175.546C175.424 11 175.331 10.9813 175.266 10.944C175.2 10.902 175.149 10.8227 175.112 10.706L174.972 10.034C174.785 10.2067 174.603 10.3607 174.426 10.496C174.248 10.6267 174.062 10.7387 173.866 10.832C173.67 10.9207 173.46 10.9883 173.236 11.035C173.016 11.0863 172.771 11.112 172.501 11.112C172.225 11.112 171.966 11.0747 171.724 11C171.481 10.9207 171.269 10.804 171.087 10.65C170.909 10.496 170.767 10.3023 170.66 10.069C170.557 9.831 170.506 9.551 170.506 9.229C170.506 8.949 170.583 8.68067 170.737 8.424C170.891 8.16267 171.14 7.93167 171.486 7.731C171.831 7.53033 172.281 7.367 172.837 7.241C173.392 7.11033 174.073 7.03567 174.881 7.017V6.464C174.881 5.91333 174.762 5.498 174.524 5.218C174.286 4.93333 173.938 4.791 173.481 4.791C173.173 4.791 172.914 4.83067 172.704 4.91C172.498 4.98467 172.319 5.071 172.165 5.169C172.015 5.26233 171.885 5.34867 171.773 5.428C171.665 5.50267 171.558 5.54 171.451 5.54C171.367 5.54 171.294 5.519 171.234 5.477C171.173 5.43033 171.122 5.37433 171.08 5.309L170.856 4.91ZM180.078 11.112C179.518 11.112 179.086 10.9557 178.783 10.643C178.484 10.3303 178.335 9.88 178.335 9.292V4.952H177.481C177.406 4.952 177.343 4.931 177.292 4.889C177.241 4.84233 177.215 4.77233 177.215 4.679V4.182L178.377 4.035L178.664 1.844C178.678 1.774 178.708 1.718 178.755 1.676C178.806 1.62933 178.872 1.606 178.951 1.606H179.581V4.049H181.632V4.952H179.581V9.208C179.581 9.50667 179.653 9.72833 179.798 9.873C179.943 10.0177 180.129 10.09 180.358 10.09C180.489 10.09 180.601 10.0737 180.694 10.041C180.792 10.0037 180.876 9.964 180.946 9.922C181.016 9.88 181.074 9.84267 181.121 9.81C181.172 9.77267 181.217 9.754 181.254 9.754C181.319 9.754 181.378 9.79367 181.429 9.873L181.793 10.468C181.578 10.6687 181.319 10.8273 181.016 10.944C180.713 11.056 180.4 11.112 180.078 11.112ZM195.993 3.909L193.697 11H192.71C192.588 11 192.504 10.9207 192.458 10.762L190.89 5.953C190.852 5.84567 190.822 5.73833 190.799 5.631C190.775 5.519 190.752 5.40933 190.729 5.302C190.705 5.40933 190.682 5.519 190.659 5.631C190.635 5.73833 190.605 5.848 190.568 5.96L188.972 10.762C188.93 10.9207 188.836 11 188.692 11H187.754L185.458 3.909H186.438C186.536 3.909 186.617 3.93467 186.683 3.986C186.753 4.03733 186.799 4.098 186.823 4.168L188.181 8.732C188.26 9.068 188.323 9.38533 188.37 9.684C188.412 9.53 188.454 9.37367 188.496 9.215C188.542 9.05633 188.591 8.89533 188.643 8.732L190.141 4.14C190.164 4.07 190.204 4.01167 190.26 3.965C190.32 3.91833 190.393 3.895 190.477 3.895H191.023C191.116 3.895 191.193 3.91833 191.254 3.965C191.314 4.01167 191.356 4.07 191.38 4.14L192.843 8.732C192.894 8.89533 192.941 9.05633 192.983 9.215C193.025 9.37367 193.064 9.53 193.102 9.684C193.125 9.53 193.153 9.376 193.186 9.222C193.223 9.06333 193.263 8.9 193.305 8.732L194.691 4.168C194.714 4.09333 194.758 4.03267 194.824 3.986C194.889 3.93467 194.966 3.909 195.055 3.909H195.993ZM201.856 6.681C201.856 6.39167 201.814 6.128 201.73 5.89C201.651 5.64733 201.532 5.43967 201.373 5.267C201.219 5.08967 201.03 4.95433 200.806 4.861C200.582 4.763 200.328 4.714 200.043 4.714C199.446 4.714 198.972 4.889 198.622 5.239C198.277 5.58433 198.062 6.065 197.978 6.681H201.856ZM202.864 10.006C202.71 10.1927 202.526 10.356 202.311 10.496C202.096 10.6313 201.865 10.7433 201.618 10.832C201.375 10.9207 201.123 10.986 200.862 11.028C200.601 11.0747 200.342 11.098 200.085 11.098C199.595 11.098 199.142 11.0163 198.727 10.853C198.316 10.685 197.959 10.4423 197.656 10.125C197.357 9.803 197.124 9.40633 196.956 8.935C196.788 8.46367 196.704 7.92233 196.704 7.311C196.704 6.81633 196.779 6.35433 196.928 5.925C197.082 5.49567 197.301 5.12467 197.586 4.812C197.871 4.49467 198.218 4.24733 198.629 4.07C199.04 3.888 199.502 3.797 200.015 3.797C200.44 3.797 200.832 3.86933 201.191 4.014C201.555 4.154 201.868 4.35933 202.129 4.63C202.395 4.896 202.603 5.22733 202.752 5.624C202.901 6.016 202.976 6.464 202.976 6.968C202.976 7.164 202.955 7.29467 202.913 7.36C202.871 7.42533 202.792 7.458 202.675 7.458H197.936C197.95 7.906 198.011 8.29567 198.118 8.627C198.23 8.95833 198.384 9.236 198.58 9.46C198.776 9.67933 199.009 9.845 199.28 9.957C199.551 10.0643 199.854 10.118 200.19 10.118C200.503 10.118 200.771 10.083 200.995 10.013C201.224 9.93833 201.42 9.859 201.583 9.775C201.746 9.691 201.882 9.614 201.989 9.544C202.101 9.46933 202.197 9.432 202.276 9.432C202.379 9.432 202.458 9.47167 202.514 9.551L202.864 10.006ZM208.551 11V4.973L207.767 4.882C207.669 4.85867 207.587 4.82367 207.522 4.777C207.461 4.72567 207.431 4.65333 207.431 4.56V4.049H208.551V3.363C208.551 2.957 208.607 2.59767 208.719 2.285C208.835 1.96767 208.999 1.70167 209.209 1.487C209.423 1.26767 209.68 1.102 209.979 0.99C210.277 0.877999 210.613 0.821999 210.987 0.821999C211.304 0.821999 211.596 0.868666 211.862 0.962L211.834 1.585C211.824 1.697 211.761 1.75767 211.645 1.767C211.533 1.77633 211.381 1.781 211.19 1.781C210.975 1.781 210.779 1.809 210.602 1.865C210.429 1.921 210.28 2.012 210.154 2.138C210.028 2.264 209.93 2.42967 209.86 2.635C209.794 2.84033 209.762 3.09467 209.762 3.398V4.049H211.806V4.952H209.804V11H208.551ZM217.51 6.681C217.51 6.39167 217.468 6.128 217.384 5.89C217.305 5.64733 217.186 5.43967 217.027 5.267C216.873 5.08967 216.684 4.95433 216.46 4.861C216.236 4.763 215.982 4.714 215.697 4.714C215.1 4.714 214.626 4.889 214.276 5.239C213.931 5.58433 213.716 6.065 213.632 6.681H217.51ZM218.518 10.006C218.364 10.1927 218.18 10.356 217.965 10.496C217.751 10.6313 217.52 10.7433 217.272 10.832C217.03 10.9207 216.778 10.986 216.516 11.028C216.255 11.0747 215.996 11.098 215.739 11.098C215.249 11.098 214.797 11.0163 214.381 10.853C213.971 10.685 213.614 10.4423 213.31 10.125C213.012 9.803 212.778 9.40633 212.61 8.935C212.442 8.46367 212.358 7.92233 212.358 7.311C212.358 6.81633 212.433 6.35433 212.582 5.925C212.736 5.49567 212.956 5.12467 213.24 4.812C213.525 4.49467 213.873 4.24733 214.283 4.07C214.694 3.888 215.156 3.797 215.669 3.797C216.094 3.797 216.486 3.86933 216.845 4.014C217.209 4.154 217.522 4.35933 217.783 4.63C218.049 4.896 218.257 5.22733 218.406 5.624C218.556 6.016 218.63 6.464 218.63 6.968C218.63 7.164 218.609 7.29467 218.567 7.36C218.525 7.42533 218.446 7.458 218.329 7.458H213.59C213.604 7.906 213.665 8.29567 213.772 8.627C213.884 8.95833 214.038 9.236 214.234 9.46C214.43 9.67933 214.664 9.845 214.934 9.957C215.205 10.0643 215.508 10.118 215.844 10.118C216.157 10.118 216.425 10.083 216.649 10.013C216.878 9.93833 217.074 9.859 217.237 9.775C217.401 9.691 217.536 9.614 217.643 9.544C217.755 9.46933 217.851 9.432 217.93 9.432C218.033 9.432 218.112 9.47167 218.168 9.551L218.518 10.006ZM224.004 7.808C223.43 7.82667 222.94 7.87333 222.534 7.948C222.132 8.018 221.803 8.11133 221.547 8.228C221.295 8.34467 221.11 8.48233 220.994 8.641C220.882 8.79967 220.826 8.977 220.826 9.173C220.826 9.35967 220.856 9.52067 220.917 9.656C220.977 9.79133 221.059 9.90333 221.162 9.992C221.269 10.076 221.393 10.139 221.533 10.181C221.677 10.2183 221.831 10.237 221.995 10.237C222.214 10.237 222.415 10.216 222.597 10.174C222.779 10.1273 222.949 10.062 223.108 9.978C223.271 9.894 223.425 9.79367 223.57 9.677C223.719 9.56033 223.864 9.42733 224.004 9.278V7.808ZM219.979 4.91C220.371 4.532 220.793 4.24967 221.246 4.063C221.698 3.87633 222.2 3.783 222.751 3.783C223.147 3.783 223.5 3.84833 223.808 3.979C224.116 4.10967 224.375 4.29167 224.585 4.525C224.795 4.75833 224.953 5.04067 225.061 5.372C225.168 5.70333 225.222 6.06733 225.222 6.464V11H224.669C224.547 11 224.454 10.9813 224.389 10.944C224.323 10.902 224.272 10.8227 224.235 10.706L224.095 10.034C223.908 10.2067 223.726 10.3607 223.549 10.496C223.371 10.6267 223.185 10.7387 222.989 10.832C222.793 10.9207 222.583 10.9883 222.359 11.035C222.139 11.0863 221.894 11.112 221.624 11.112C221.348 11.112 221.089 11.0747 220.847 11C220.604 10.9207 220.392 10.804 220.21 10.65C220.032 10.496 219.89 10.3023 219.783 10.069C219.68 9.831 219.629 9.551 219.629 9.229C219.629 8.949 219.706 8.68067 219.86 8.424C220.014 8.16267 220.263 7.93167 220.609 7.731C220.954 7.53033 221.404 7.367 221.96 7.241C222.515 7.11033 223.196 7.03567 224.004 7.017V6.464C224.004 5.91333 223.885 5.498 223.647 5.218C223.409 4.93333 223.061 4.791 222.604 4.791C222.296 4.791 222.037 4.83067 221.827 4.91C221.621 4.98467 221.442 5.071 221.288 5.169C221.138 5.26233 221.008 5.34867 220.896 5.428C220.788 5.50267 220.681 5.54 220.574 5.54C220.49 5.54 220.417 5.519 220.357 5.477C220.296 5.43033 220.245 5.37433 220.203 5.309L219.979 4.91ZM229.201 11.112C228.641 11.112 228.209 10.9557 227.906 10.643C227.607 10.3303 227.458 9.88 227.458 9.292V4.952H226.604C226.529 4.952 226.466 4.931 226.415 4.889C226.364 4.84233 226.338 4.77233 226.338 4.679V4.182L227.5 4.035L227.787 1.844C227.801 1.774 227.831 1.718 227.878 1.676C227.929 1.62933 227.995 1.606 228.074 1.606H228.704V4.049H230.755V4.952H228.704V9.208C228.704 9.50667 228.776 9.72833 228.921 9.873C229.066 10.0177 229.252 10.09 229.481 10.09C229.612 10.09 229.724 10.0737 229.817 10.041C229.915 10.0037 229.999 9.964 230.069 9.922C230.139 9.88 230.197 9.84267 230.244 9.81C230.295 9.77267 230.34 9.754 230.377 9.754C230.442 9.754 230.501 9.79367 230.552 9.873L230.916 10.468C230.701 10.6687 230.442 10.8273 230.139 10.944C229.836 11.056 229.523 11.112 229.201 11.112ZM237.873 3.909V11H237.131C236.953 11 236.841 10.9137 236.795 10.741L236.697 9.978C236.389 10.3187 236.043 10.594 235.661 10.804C235.278 11.0093 234.839 11.112 234.345 11.112C233.957 11.112 233.614 11.049 233.316 10.923C233.022 10.7923 232.774 10.6103 232.574 10.377C232.373 10.1437 232.221 9.86133 232.119 9.53C232.021 9.19867 231.972 8.83233 231.972 8.431V3.909H233.218V8.431C233.218 8.96767 233.339 9.383 233.582 9.677C233.829 9.971 234.205 10.118 234.709 10.118C235.077 10.118 235.42 10.0317 235.738 9.859C236.06 9.68167 236.356 9.439 236.627 9.131V3.909H237.873ZM241.031 5.33C241.255 4.84467 241.531 4.46667 241.857 4.196C242.184 3.92067 242.583 3.783 243.054 3.783C243.204 3.783 243.346 3.79933 243.481 3.832C243.621 3.86467 243.745 3.916 243.852 3.986L243.761 4.917C243.733 5.03367 243.663 5.092 243.551 5.092C243.486 5.092 243.39 5.078 243.264 5.05C243.138 5.022 242.996 5.008 242.837 5.008C242.613 5.008 242.413 5.04067 242.235 5.106C242.063 5.17133 241.906 5.26933 241.766 5.4C241.631 5.526 241.507 5.68467 241.395 5.876C241.288 6.06267 241.19 6.27733 241.101 6.52V11H239.848V3.909H240.562C240.698 3.909 240.791 3.93467 240.842 3.986C240.894 4.03733 240.929 4.126 240.947 4.252L241.031 5.33ZM249.407 6.681C249.407 6.39167 249.365 6.128 249.281 5.89C249.201 5.64733 249.082 5.43967 248.924 5.267C248.77 5.08967 248.581 4.95433 248.357 4.861C248.133 4.763 247.878 4.714 247.594 4.714C246.996 4.714 246.523 4.889 246.173 5.239C245.827 5.58433 245.613 6.065 245.529 6.681H249.407ZM250.415 10.006C250.261 10.1927 250.076 10.356 249.862 10.496C249.647 10.6313 249.416 10.7433 249.169 10.832C248.926 10.9207 248.674 10.986 248.413 11.028C248.151 11.0747 247.892 11.098 247.636 11.098C247.146 11.098 246.693 11.0163 246.278 10.853C245.867 10.685 245.51 10.4423 245.207 10.125C244.908 9.803 244.675 9.40633 244.507 8.935C244.339 8.46367 244.255 7.92233 244.255 7.311C244.255 6.81633 244.329 6.35433 244.479 5.925C244.633 5.49567 244.852 5.12467 245.137 4.812C245.421 4.49467 245.769 4.24733 246.18 4.07C246.59 3.888 247.052 3.797 247.566 3.797C247.99 3.797 248.382 3.86933 248.742 4.014C249.106 4.154 249.418 4.35933 249.68 4.63C249.946 4.896 250.153 5.22733 250.303 5.624C250.452 6.016 250.527 6.464 250.527 6.968C250.527 7.164 250.506 7.29467 250.464 7.36C250.422 7.42533 250.342 7.458 250.226 7.458H245.487C245.501 7.906 245.561 8.29567 245.669 8.627C245.781 8.95833 245.935 9.236 246.131 9.46C246.327 9.67933 246.56 9.845 246.831 9.957C247.101 10.0643 247.405 10.118 247.741 10.118C248.053 10.118 248.322 10.083 248.546 10.013C248.774 9.93833 248.97 9.859 249.134 9.775C249.297 9.691 249.432 9.614 249.54 9.544C249.652 9.46933 249.747 9.432 249.827 9.432C249.929 9.432 250.009 9.47167 250.065 9.551L250.415 10.006ZM256.677 5.596C256.444 5.28333 256.192 5.06633 255.921 4.945C255.651 4.819 255.347 4.756 255.011 4.756C254.353 4.756 253.847 4.99167 253.492 5.463C253.138 5.93433 252.96 6.60633 252.96 7.479C252.96 7.941 253 8.33767 253.079 8.669C253.159 8.99567 253.275 9.26633 253.429 9.481C253.583 9.691 253.772 9.845 253.996 9.943C254.22 10.041 254.475 10.09 254.759 10.09C255.17 10.09 255.527 9.99667 255.83 9.81C256.138 9.62333 256.421 9.35967 256.677 9.019V5.596ZM257.923 0.689V11H257.181C257.004 11 256.892 10.9137 256.845 10.741L256.733 9.88C256.43 10.244 256.085 10.538 255.697 10.762C255.31 10.986 254.862 11.098 254.353 11.098C253.947 11.098 253.579 11.021 253.247 10.867C252.916 10.7083 252.634 10.4773 252.4 10.174C252.167 9.87067 251.987 9.49267 251.861 9.04C251.735 8.58733 251.672 8.067 251.672 7.479C251.672 6.95633 251.742 6.471 251.882 6.023C252.022 5.57033 252.223 5.17833 252.484 4.847C252.746 4.51567 253.065 4.25667 253.443 4.07C253.826 3.87867 254.255 3.783 254.731 3.783C255.165 3.783 255.536 3.85767 255.844 4.007C256.157 4.15167 256.435 4.35467 256.677 4.616V0.689H257.923ZM264.789 3.909V11H263.543V3.909H264.789ZM265.055 1.683C265.055 1.80433 265.03 1.91867 264.978 2.026C264.932 2.12867 264.866 2.222 264.782 2.306C264.703 2.38533 264.607 2.44833 264.495 2.495C264.388 2.54167 264.274 2.565 264.152 2.565C264.031 2.565 263.917 2.54167 263.809 2.495C263.707 2.44833 263.616 2.38533 263.536 2.306C263.457 2.222 263.394 2.12867 263.347 2.026C263.301 1.91867 263.277 1.80433 263.277 1.683C263.277 1.56167 263.301 1.44733 263.347 1.34C263.394 1.228 263.457 1.13233 263.536 1.053C263.616 0.969 263.707 0.903666 263.809 0.856999C263.917 0.810333 264.031 0.786999 264.152 0.786999C264.274 0.786999 264.388 0.810333 264.495 0.856999C264.607 0.903666 264.703 0.969 264.782 1.053C264.866 1.13233 264.932 1.228 264.978 1.34C265.03 1.44733 265.055 1.56167 265.055 1.683ZM268.013 4.938C268.167 4.76533 268.33 4.609 268.503 4.469C268.675 4.329 268.857 4.21 269.049 4.112C269.245 4.00933 269.45 3.93233 269.665 3.881C269.884 3.825 270.12 3.797 270.372 3.797C270.759 3.797 271.1 3.86233 271.394 3.993C271.692 4.119 271.94 4.301 272.136 4.539C272.336 4.77233 272.488 5.05467 272.591 5.386C272.693 5.71733 272.745 6.08367 272.745 6.485V11H271.492V6.485C271.492 5.94833 271.368 5.533 271.121 5.239C270.878 4.94033 270.507 4.791 270.008 4.791C269.639 4.791 269.294 4.87967 268.972 5.057C268.654 5.23433 268.36 5.47467 268.09 5.778V11H266.837V3.909H267.586C267.763 3.909 267.873 3.99533 267.915 4.168L268.013 4.938ZM280.402 11.112C279.842 11.112 279.411 10.9557 279.107 10.643C278.809 10.3303 278.659 9.88 278.659 9.292V4.952H277.805C277.731 4.952 277.668 4.931 277.616 4.889C277.565 4.84233 277.539 4.77233 277.539 4.679V4.182L278.701 4.035L278.988 1.844C279.002 1.774 279.033 1.718 279.079 1.676C279.131 1.62933 279.196 1.606 279.275 1.606H279.905V4.049H281.956V4.952H279.905V9.208C279.905 9.50667 279.978 9.72833 280.122 9.873C280.267 10.0177 280.454 10.09 280.682 10.09C280.813 10.09 280.925 10.0737 281.018 10.041C281.116 10.0037 281.2 9.964 281.27 9.922C281.34 9.88 281.399 9.84267 281.445 9.81C281.497 9.77267 281.541 9.754 281.578 9.754C281.644 9.754 281.702 9.79367 281.753 9.873L282.117 10.468C281.903 10.6687 281.644 10.8273 281.34 10.944C281.037 11.056 280.724 11.112 280.402 11.112ZM284.496 4.854C284.799 4.532 285.135 4.27533 285.504 4.084C285.873 3.89267 286.297 3.797 286.778 3.797C287.165 3.797 287.506 3.86233 287.8 3.993C288.099 4.119 288.346 4.301 288.542 4.539C288.743 4.77233 288.894 5.05467 288.997 5.386C289.1 5.71733 289.151 6.08367 289.151 6.485V11H287.898V6.485C287.898 5.94833 287.774 5.533 287.527 5.239C287.284 4.94033 286.913 4.791 286.414 4.791C286.045 4.791 285.7 4.87967 285.378 5.057C285.061 5.23433 284.767 5.47467 284.496 5.778V11H283.243V0.689H284.496V4.854ZM292.366 3.909V11H291.12V3.909H292.366ZM292.632 1.683C292.632 1.80433 292.606 1.91867 292.555 2.026C292.508 2.12867 292.443 2.222 292.359 2.306C292.279 2.38533 292.184 2.44833 292.072 2.495C291.964 2.54167 291.85 2.565 291.729 2.565C291.607 2.565 291.493 2.54167 291.386 2.495C291.283 2.44833 291.192 2.38533 291.113 2.306C291.033 2.222 290.97 2.12867 290.924 2.026C290.877 1.91867 290.854 1.80433 290.854 1.683C290.854 1.56167 290.877 1.44733 290.924 1.34C290.97 1.228 291.033 1.13233 291.113 1.053C291.192 0.969 291.283 0.903666 291.386 0.856999C291.493 0.810333 291.607 0.786999 291.729 0.786999C291.85 0.786999 291.964 0.810333 292.072 0.856999C292.184 0.903666 292.279 0.969 292.359 1.053C292.443 1.13233 292.508 1.228 292.555 1.34C292.606 1.44733 292.632 1.56167 292.632 1.683ZM298.543 5.078C298.487 5.18067 298.4 5.232 298.284 5.232C298.214 5.232 298.134 5.20633 298.046 5.155C297.957 5.10367 297.847 5.04767 297.717 4.987C297.591 4.92167 297.439 4.86333 297.262 4.812C297.084 4.756 296.874 4.728 296.632 4.728C296.422 4.728 296.233 4.756 296.065 4.812C295.897 4.86333 295.752 4.93567 295.631 5.029C295.514 5.12233 295.423 5.232 295.358 5.358C295.297 5.47933 295.267 5.61233 295.267 5.757C295.267 5.939 295.318 6.09067 295.421 6.212C295.528 6.33333 295.668 6.43833 295.841 6.527C296.013 6.61567 296.209 6.695 296.429 6.765C296.648 6.83033 296.872 6.90267 297.101 6.982C297.334 7.05667 297.56 7.14067 297.78 7.234C297.999 7.32733 298.195 7.444 298.368 7.584C298.54 7.724 298.678 7.89667 298.781 8.102C298.888 8.30267 298.942 8.54533 298.942 8.83C298.942 9.15667 298.883 9.46 298.767 9.74C298.65 10.0153 298.477 10.2557 298.249 10.461C298.02 10.6617 297.74 10.8203 297.409 10.937C297.077 11.0537 296.695 11.112 296.261 11.112C295.766 11.112 295.318 11.0327 294.917 10.874C294.515 10.7107 294.175 10.503 293.895 10.251L294.189 9.775C294.226 9.71433 294.27 9.66767 294.322 9.635C294.373 9.60233 294.438 9.586 294.518 9.586C294.602 9.586 294.69 9.61867 294.784 9.684C294.877 9.74933 294.989 9.82167 295.12 9.901C295.255 9.98033 295.418 10.0527 295.61 10.118C295.801 10.1833 296.039 10.216 296.324 10.216C296.566 10.216 296.779 10.1857 296.961 10.125C297.143 10.0597 297.294 9.97333 297.416 9.866C297.537 9.75867 297.626 9.635 297.682 9.495C297.742 9.355 297.773 9.20567 297.773 9.047C297.773 8.851 297.719 8.69 297.612 8.564C297.509 8.43333 297.371 8.32367 297.199 8.235C297.026 8.14167 296.828 8.06233 296.604 7.997C296.384 7.927 296.158 7.85467 295.925 7.78C295.696 7.70533 295.47 7.62133 295.246 7.528C295.026 7.43 294.83 7.30867 294.658 7.164C294.485 7.01933 294.345 6.842 294.238 6.632C294.135 6.41733 294.084 6.15833 294.084 5.855C294.084 5.58433 294.14 5.32533 294.252 5.078C294.364 4.826 294.527 4.60667 294.742 4.42C294.956 4.22867 295.22 4.077 295.533 3.965C295.845 3.853 296.202 3.797 296.604 3.797C297.07 3.797 297.488 3.87167 297.857 4.021C298.23 4.16567 298.552 4.36633 298.823 4.623L298.543 5.078ZM313.543 3.909L311.247 11H310.26C310.139 11 310.055 10.9207 310.008 10.762L308.44 5.953C308.403 5.84567 308.373 5.73833 308.349 5.631C308.326 5.519 308.303 5.40933 308.279 5.302C308.256 5.40933 308.233 5.519 308.209 5.631C308.186 5.73833 308.156 5.848 308.118 5.96L306.522 10.762C306.48 10.9207 306.387 11 306.242 11H305.304L303.008 3.909H303.988C304.086 3.909 304.168 3.93467 304.233 3.986C304.303 4.03733 304.35 4.098 304.373 4.168L305.731 8.732C305.811 9.068 305.874 9.38533 305.92 9.684C305.962 9.53 306.004 9.37367 306.046 9.215C306.093 9.05633 306.142 8.89533 306.193 8.732L307.691 4.14C307.715 4.07 307.754 4.01167 307.81 3.965C307.871 3.91833 307.943 3.895 308.027 3.895H308.573C308.667 3.895 308.744 3.91833 308.804 3.965C308.865 4.01167 308.907 4.07 308.93 4.14L310.393 8.732C310.445 8.89533 310.491 9.05633 310.533 9.215C310.575 9.37367 310.615 9.53 310.652 9.684C310.676 9.53 310.704 9.376 310.736 9.222C310.774 9.06333 310.813 8.9 310.855 8.732L312.241 4.168C312.265 4.09333 312.309 4.03267 312.374 3.986C312.44 3.93467 312.517 3.909 312.605 3.909H313.543ZM319.407 6.681C319.407 6.39167 319.365 6.128 319.281 5.89C319.201 5.64733 319.082 5.43967 318.924 5.267C318.77 5.08967 318.581 4.95433 318.357 4.861C318.133 4.763 317.878 4.714 317.594 4.714C316.996 4.714 316.523 4.889 316.173 5.239C315.827 5.58433 315.613 6.065 315.529 6.681H319.407ZM320.415 10.006C320.261 10.1927 320.076 10.356 319.862 10.496C319.647 10.6313 319.416 10.7433 319.169 10.832C318.926 10.9207 318.674 10.986 318.413 11.028C318.151 11.0747 317.892 11.098 317.636 11.098C317.146 11.098 316.693 11.0163 316.278 10.853C315.867 10.685 315.51 10.4423 315.207 10.125C314.908 9.803 314.675 9.40633 314.507 8.935C314.339 8.46367 314.255 7.92233 314.255 7.311C314.255 6.81633 314.329 6.35433 314.479 5.925C314.633 5.49567 314.852 5.12467 315.137 4.812C315.421 4.49467 315.769 4.24733 316.18 4.07C316.59 3.888 317.052 3.797 317.566 3.797C317.99 3.797 318.382 3.86933 318.742 4.014C319.106 4.154 319.418 4.35933 319.68 4.63C319.946 4.896 320.153 5.22733 320.303 5.624C320.452 6.016 320.527 6.464 320.527 6.968C320.527 7.164 320.506 7.29467 320.464 7.36C320.422 7.42533 320.342 7.458 320.226 7.458H315.487C315.501 7.906 315.561 8.29567 315.669 8.627C315.781 8.95833 315.935 9.236 316.131 9.46C316.327 9.67933 316.56 9.845 316.831 9.957C317.101 10.0643 317.405 10.118 317.741 10.118C318.053 10.118 318.322 10.083 318.546 10.013C318.774 9.93833 318.97 9.859 319.134 9.775C319.297 9.691 319.432 9.614 319.54 9.544C319.652 9.46933 319.747 9.432 319.827 9.432C319.929 9.432 320.009 9.47167 320.065 9.551L320.415 10.006ZM326.803 6.681C326.803 6.39167 326.761 6.128 326.677 5.89C326.598 5.64733 326.479 5.43967 326.32 5.267C326.166 5.08967 325.977 4.95433 325.753 4.861C325.529 4.763 325.275 4.714 324.99 4.714C324.393 4.714 323.919 4.889 323.569 5.239C323.224 5.58433 323.009 6.065 322.925 6.681H326.803ZM327.811 10.006C327.657 10.1927 327.473 10.356 327.258 10.496C327.044 10.6313 326.813 10.7433 326.565 10.832C326.323 10.9207 326.071 10.986 325.809 11.028C325.548 11.0747 325.289 11.098 325.032 11.098C324.542 11.098 324.09 11.0163 323.674 10.853C323.264 10.685 322.907 10.4423 322.603 10.125C322.305 9.803 322.071 9.40633 321.903 8.935C321.735 8.46367 321.651 7.92233 321.651 7.311C321.651 6.81633 321.726 6.35433 321.875 5.925C322.029 5.49567 322.249 5.12467 322.533 4.812C322.818 4.49467 323.166 4.24733 323.576 4.07C323.987 3.888 324.449 3.797 324.962 3.797C325.387 3.797 325.779 3.86933 326.138 4.014C326.502 4.154 326.815 4.35933 327.076 4.63C327.342 4.896 327.55 5.22733 327.699 5.624C327.849 6.016 327.923 6.464 327.923 6.968C327.923 7.164 327.902 7.29467 327.86 7.36C327.818 7.42533 327.739 7.458 327.622 7.458H322.883C322.897 7.906 322.958 8.29567 323.065 8.627C323.177 8.95833 323.331 9.236 323.527 9.46C323.723 9.67933 323.957 9.845 324.227 9.957C324.498 10.0643 324.801 10.118 325.137 10.118C325.45 10.118 325.718 10.083 325.942 10.013C326.171 9.93833 326.367 9.859 326.53 9.775C326.694 9.691 326.829 9.614 326.936 9.544C327.048 9.46933 327.144 9.432 327.223 9.432C327.326 9.432 327.405 9.47167 327.461 9.551L327.811 10.006ZM330.707 0.689V6.758H331.029C331.122 6.758 331.199 6.74633 331.26 6.723C331.325 6.695 331.393 6.64133 331.463 6.562L333.703 4.161C333.768 4.08167 333.836 4.021 333.906 3.979C333.98 3.93233 334.078 3.909 334.2 3.909H335.327L332.716 6.688C332.59 6.84667 332.454 6.97033 332.31 7.059C332.394 7.115 332.468 7.18033 332.534 7.255C332.604 7.325 332.669 7.40667 332.73 7.5L335.502 11H334.389C334.281 11 334.188 10.9837 334.109 10.951C334.034 10.9137 333.969 10.8483 333.913 10.755L331.582 7.85C331.512 7.752 331.442 7.689 331.372 7.661C331.306 7.62833 331.204 7.612 331.064 7.612H330.707V11H329.454V0.689H330.707Z" fill="#9F9F9F"/>
</svg>
