<svg width="344.908081" height="47.696777" viewBox="0 0 344.908 47.6968" fill="none" xmlns="http://www.w3.org/2000/svg" xmlns:xlink="http://www.w3.org/1999/xlink">
	<desc>
			Created with Pixso.
	</desc>
	<defs/>
	<path id="SUBSCRIBE FOR OUR NEWLETTER AND PROMOTION" d="M116.41 3.71Q116.57 3.59 116.72 3.34L117.52 1.82Q116.6 0.96 115.31 0.48Q114.01 0 112.48 0Q111.11 0 110.05 0.42Q109 0.83 108.28 1.53Q107.81 1.98 107.49 2.52Q107.31 2.81 107.18 3.13Q106.93 3.71 106.85 4.32Q106.8 4.64 106.8 4.98Q106.8 6.16 107.14 6.97Q107.49 7.78 108.05 8.32Q108.21 8.47 108.38 8.61Q108.82 8.96 109.33 9.2Q110.05 9.53 110.8 9.77Q111.54 10.01 112.26 10.22Q112.98 10.42 113.55 10.72Q114.11 11.01 114.45 11.44Q114.47 11.47 114.48 11.49Q114.79 11.91 114.79 12.56Q114.79 13.51 114.34 14.12Q114.21 14.29 114.04 14.44Q113.28 15.09 111.9 15.09Q111 15.09 110.36 14.84Q109.72 14.6 109.24 14.3Q108.76 14 108.41 13.75Q108.06 13.51 107.76 13.51Q107.69 13.51 107.61 13.52Q107.48 13.55 107.35 13.62Q107.16 13.74 107.04 13.9L106.09 15.45Q106.6 15.97 107.24 16.39Q107.89 16.81 108.63 17.1Q109.37 17.4 110.17 17.57Q110.55 17.64 110.93 17.68Q111.36 17.73 111.81 17.73Q113.25 17.73 114.36 17.29Q115.48 16.85 116.25 16.09Q116.58 15.77 116.84 15.4Q117.2 14.89 117.42 14.3Q117.44 14.26 117.46 14.22Q117.83 13.23 117.83 12.1Q117.83 11.02 117.48 10.27Q117.15 9.53 116.61 9.02Q116.6 9 116.58 8.99Q116.53 8.94 116.47 8.89Q115.95 8.43 115.3 8.13Q114.89 7.93 114.47 7.77Q114.15 7.64 113.82 7.52Q113.07 7.27 112.34 7.04Q111.62 6.81 111.06 6.52Q110.5 6.24 110.15 5.83Q110.09 5.75 110.03 5.66Q109.81 5.3 109.81 4.81Q109.81 4.33 109.98 3.93Q110.05 3.75 110.16 3.6Q110.3 3.4 110.49 3.24Q110.83 2.95 111.34 2.78Q111.84 2.62 112.51 2.62Q113.26 2.62 113.8 2.81Q114.35 3 114.75 3.22Q115.16 3.45 115.46 3.64Q115.75 3.82 116.01 3.82Q116.25 3.82 116.41 3.71ZM163.19 3.71Q163.36 3.59 163.5 3.34L164.31 1.82Q163.39 0.96 162.1 0.48Q160.8 0 159.27 0Q157.9 0 156.84 0.42Q155.79 0.83 155.07 1.53Q154.6 1.98 154.28 2.52Q154.1 2.81 153.96 3.13Q153.72 3.71 153.64 4.32Q153.59 4.64 153.59 4.98Q153.59 6.16 153.93 6.97Q154.28 7.78 154.84 8.32Q155 8.47 155.17 8.61Q155.61 8.96 156.12 9.2Q156.84 9.53 157.59 9.77Q158.33 10.01 159.05 10.22Q159.77 10.42 160.33 10.72Q160.9 11.01 161.24 11.44Q161.25 11.47 161.27 11.49Q161.58 11.91 161.58 12.56Q161.58 13.51 161.12 14.12Q160.99 14.29 160.83 14.44Q160.07 15.09 158.69 15.09Q157.79 15.09 157.15 14.84Q156.51 14.6 156.03 14.3Q155.55 14 155.2 13.75Q154.85 13.51 154.55 13.51Q154.47 13.51 154.4 13.52Q154.27 13.55 154.14 13.62Q153.95 13.74 153.83 13.9L152.88 15.45Q153.38 15.97 154.03 16.39Q154.68 16.81 155.42 17.1Q156.16 17.4 156.96 17.57Q157.34 17.64 157.72 17.68Q158.15 17.73 158.59 17.73Q160.03 17.73 161.15 17.29Q162.27 16.85 163.04 16.09Q163.37 15.77 163.63 15.4Q163.98 14.89 164.21 14.3Q164.23 14.26 164.24 14.22Q164.62 13.23 164.62 12.1Q164.62 11.02 164.27 10.27Q163.94 9.53 163.4 9.02Q163.39 9 163.37 8.99Q163.31 8.94 163.26 8.89Q162.74 8.43 162.09 8.13Q161.68 7.93 161.26 7.77Q160.94 7.64 160.61 7.52Q159.85 7.27 159.13 7.04Q158.41 6.81 157.85 6.52Q157.29 6.24 156.94 5.83Q156.87 5.75 156.82 5.66Q156.6 5.3 156.6 4.81Q156.6 4.33 156.77 3.93Q156.84 3.75 156.95 3.6Q157.08 3.4 157.28 3.24Q157.62 2.95 158.12 2.78Q158.63 2.62 159.3 2.62Q160.05 2.62 160.59 2.81Q161.14 3 161.54 3.22Q161.95 3.45 162.24 3.64Q162.54 3.82 162.79 3.82Q163.03 3.82 163.19 3.71ZM179.52 13.47Q179.43 13.45 179.34 13.45Q179.31 13.45 179.28 13.45Q179.17 13.46 179.06 13.51Q178.94 13.58 178.81 13.69Q178.42 14.05 178.02 14.29Q177.91 14.36 177.79 14.42Q177.49 14.58 177.16 14.7Q176.71 14.85 176.18 14.92Q175.65 15 174.99 15Q174.08 15 173.27 14.72Q173.09 14.66 172.92 14.58Q172.48 14.39 172.08 14.12Q171.63 13.81 171.25 13.39Q170.54 12.6 170.13 11.47Q169.72 10.33 169.72 8.86Q169.72 7.41 170.1 6.28Q170.49 5.14 171.18 4.35Q171.55 3.94 171.99 3.63Q172.39 3.35 172.84 3.16Q173.81 2.74 174.97 2.74Q175.66 2.74 176.18 2.85Q176.7 2.95 177.1 3.1Q177.49 3.25 177.79 3.43Q178.09 3.6 178.32 3.76Q178.55 3.9 178.74 4.01Q178.94 4.11 179.11 4.11Q179.38 4.11 179.53 4Q179.68 3.89 179.77 3.75L180.85 2.25Q179.82 1.24 178.35 0.62Q176.88 0 174.99 0Q173.08 0 171.51 0.65Q170.37 1.12 169.46 1.87Q169.11 2.16 168.8 2.48Q168.71 2.57 168.63 2.66Q167.62 3.77 167.04 5.28Q166.42 6.9 166.42 8.86Q166.42 10.79 167 12.43Q167.55 13.97 168.56 15.11Q168.61 15.17 168.67 15.24Q168.93 15.52 169.22 15.77Q170.13 16.57 171.31 17.07Q172.85 17.73 174.78 17.73Q176.94 17.73 178.48 17.03Q179.31 16.66 179.99 16.12Q180.59 15.64 181.08 15.03L179.81 13.65Q179.68 13.52 179.52 13.47ZM129.29 14.63Q128.56 14.94 127.62 14.94Q126.69 14.94 125.95 14.63Q125.38 14.38 124.95 13.99Q124.82 13.87 124.7 13.74Q124.19 13.17 123.92 12.37Q123.65 11.56 123.65 10.57L123.65 0.19L120.42 0.19L120.42 10.58Q120.42 12.12 120.92 13.44Q121.33 14.52 122.03 15.36Q122.18 15.54 122.34 15.71Q122.4 15.76 122.45 15.81Q123.35 16.69 124.61 17.2Q125.94 17.73 127.62 17.73Q129.29 17.73 130.62 17.2Q131.92 16.67 132.83 15.76Q132.85 15.74 132.88 15.71Q133.06 15.52 133.23 15.32Q133.91 14.49 134.31 13.44Q134.81 12.12 134.81 10.58L134.81 0.19L131.58 0.19L131.58 10.58Q131.58 11.57 131.31 12.38Q131.04 13.18 130.54 13.75Q130.45 13.85 130.35 13.94Q129.9 14.37 129.29 14.63ZM147.35 0.51Q146.14 0.19 144.44 0.19L138.46 0.19L138.46 17.54L145.01 17.54Q146.52 17.54 147.69 17.16Q148.87 16.77 149.67 16.1Q150.2 15.66 150.55 15.11Q150.75 14.81 150.9 14.48Q150.95 14.37 150.99 14.26Q151.32 13.41 151.32 12.44Q151.32 11.25 150.78 10.41Q149.94 9.06 147.75 8.57Q148.55 8.3 149.13 7.91Q149.72 7.51 150.09 7.02Q150.45 6.57 150.62 6.05Q150.64 6.01 150.65 5.98L150.65 5.97Q150.83 5.41 150.83 4.81Q150.83 3.74 150.47 2.89Q150.36 2.63 150.21 2.4Q149.88 1.85 149.33 1.44Q148.56 0.83 147.35 0.51ZM193.93 17.54L196.85 17.54L192.51 11.13Q192.29 10.79 192.03 10.55Q191.95 10.48 191.88 10.41Q191.68 10.25 191.45 10.12Q192.36 9.84 193.08 9.36Q193.79 8.88 194.28 8.25Q194.42 8.06 194.55 7.86Q194.84 7.38 195.02 6.83Q195.28 6.05 195.28 5.18Q195.28 4.07 194.89 3.16Q194.78 2.88 194.63 2.63Q194.27 2.04 193.7 1.58Q192.89 0.92 191.62 0.56Q190.36 0.19 188.59 0.19L183.3 0.19L183.3 17.54L186.53 17.54L186.53 10.76L187.91 10.76Q188.39 10.76 188.64 10.89Q188.88 11.02 189.09 11.33L192.73 16.89Q192.88 17.15 193.11 17.31Q193.44 17.54 193.93 17.54ZM198.74 17.54L201.98 17.54L201.98 0.19L198.74 0.19L198.74 17.54ZM214.74 0.51Q213.53 0.19 211.83 0.19L205.85 0.19L205.85 17.54L212.4 17.54Q213.91 17.54 215.09 17.16Q216.26 16.77 217.07 16.1Q217.59 15.66 217.95 15.11Q218.14 14.81 218.29 14.48Q218.34 14.37 218.38 14.26Q218.71 13.41 218.71 12.44Q218.71 11.25 218.18 10.41Q217.33 9.06 215.14 8.57Q215.94 8.3 216.52 7.91Q217.11 7.51 217.48 7.02Q217.84 6.57 218.02 6.05Q218.03 6.01 218.04 5.98L218.04 5.97Q218.22 5.41 218.22 4.81Q218.22 3.74 217.86 2.89Q217.75 2.63 217.61 2.4Q217.27 1.85 216.73 1.44Q215.95 0.83 214.74 0.51ZM224.9 7.57L224.9 2.75L232.6 2.75L232.6 0.19L221.66 0.19L221.66 17.54L232.6 17.54L232.6 14.96L224.9 14.96L224.9 10.05L230.97 10.05L230.97 7.57L224.9 7.57ZM141.69 7.7L141.69 2.68L144.44 2.68Q146.07 2.68 146.83 3.26Q146.92 3.32 147 3.4Q147.6 3.99 147.6 5.19Q147.6 6.19 147.11 6.77Q146.96 6.96 146.76 7.1Q145.91 7.7 144.25 7.7L141.69 7.7ZM190.14 8.22Q189.46 8.44 188.55 8.44L186.53 8.44L186.53 2.68L188.59 2.68Q190.38 2.68 191.25 3.39Q191.5 3.59 191.67 3.84Q192.12 4.47 192.12 5.42Q192.12 6.08 191.91 6.63Q191.81 6.88 191.66 7.11Q191.49 7.37 191.25 7.59Q190.82 7.99 190.14 8.22ZM209.08 7.7L209.08 2.68L211.83 2.68Q213.46 2.68 214.22 3.26Q214.31 3.32 214.39 3.4Q214.99 3.99 214.99 5.19Q214.99 6.19 214.5 6.77Q214.35 6.96 214.15 7.1Q213.3 7.7 211.65 7.7L209.08 7.7ZM146.46 14.8Q145.85 15.02 144.95 15.02L141.69 15.02L141.69 9.93L144.94 9.93Q145.79 9.93 146.39 10.1Q147 10.27 147.38 10.58Q147.62 10.78 147.78 11.03Q147.88 11.18 147.95 11.35Q148.13 11.8 148.13 12.36Q148.13 12.9 147.96 13.38Q147.9 13.57 147.81 13.74Q147.66 14.01 147.44 14.23Q147.07 14.58 146.46 14.8ZM213.85 14.8Q213.24 15.02 212.34 15.02L209.08 15.02L209.08 9.93L212.33 9.93Q213.18 9.93 213.79 10.1Q214.39 10.27 214.78 10.58Q215.02 10.78 215.17 11.03Q215.27 11.18 215.34 11.35Q215.52 11.8 215.52 12.36Q215.52 12.9 215.36 13.38Q215.29 13.57 215.2 13.74Q215.05 14.01 214.83 14.23Q214.46 14.58 213.85 14.8ZM21.51 43.75Q21.97 42.54 21.97 41.1Q21.97 39.65 21.51 38.44Q21.09 37.32 20.34 36.49Q20.28 36.42 20.22 36.35Q20.04 36.16 19.85 35.99Q19.13 35.37 18.2 34.98Q17.03 34.5 15.61 34.5Q14.19 34.5 13.01 34.98Q12.15 35.35 11.46 35.92Q11.22 36.12 11.01 36.35Q10.94 36.42 10.88 36.49Q10.14 37.32 9.71 38.44Q9.26 39.65 9.26 41.1Q9.26 42.54 9.71 43.75Q10.13 44.85 10.86 45.67Q10.93 45.76 11.01 45.84Q11.22 46.06 11.45 46.25Q12.14 46.83 13.01 47.2Q14.19 47.67 15.61 47.67Q17.03 47.67 18.2 47.2Q19.14 46.81 19.86 46.18Q20.04 46.02 20.22 45.84Q20.29 45.76 20.37 45.67Q21.09 44.85 21.51 43.75ZM51.8 43.75Q52.26 42.54 52.26 41.1Q52.26 39.65 51.8 38.44Q51.38 37.32 50.64 36.49Q50.57 36.42 50.51 36.35Q50.33 36.16 50.14 35.99Q49.43 35.37 48.5 34.98Q47.33 34.5 45.9 34.5Q44.48 34.5 43.31 34.98Q42.44 35.35 41.75 35.92Q41.52 36.12 41.3 36.35Q41.24 36.42 41.17 36.49Q40.43 37.32 40.01 38.44Q39.55 39.65 39.55 41.1Q39.55 42.54 40.01 43.75Q40.42 44.85 41.15 45.67Q41.22 45.76 41.3 45.84Q41.51 46.06 41.74 46.25Q42.43 46.83 43.31 47.2Q44.48 47.67 45.9 47.67Q47.33 47.67 48.5 47.2Q49.43 46.81 50.15 46.18Q50.34 46.02 50.51 45.84Q50.59 45.76 50.66 45.67Q51.39 44.85 51.8 43.75ZM270.87 43.75Q271.33 42.54 271.33 41.1Q271.33 39.65 270.87 38.44Q270.45 37.32 269.71 36.49Q269.64 36.42 269.58 36.35Q269.4 36.16 269.21 35.99Q268.5 35.37 267.57 34.98Q266.39 34.5 264.97 34.5Q263.55 34.5 262.38 34.98Q261.51 35.35 260.82 35.92Q260.58 36.12 260.37 36.35Q260.31 36.42 260.24 36.49Q259.5 37.32 259.08 38.44Q258.62 39.65 258.62 41.1Q258.62 42.54 259.08 43.75Q259.49 44.85 260.22 45.67Q260.29 45.76 260.37 45.84Q260.58 46.06 260.81 46.25Q261.5 46.83 262.38 47.2Q263.55 47.67 264.97 47.67Q266.39 47.67 267.57 47.2Q268.5 46.81 269.22 46.18Q269.41 46.02 269.58 45.84Q269.66 45.76 269.73 45.67Q270.46 44.85 270.87 43.75ZM301.99 43.75Q302.46 42.54 302.46 41.1Q302.46 39.65 301.99 38.44Q301.57 37.32 300.83 36.49Q300.77 36.42 300.7 36.35Q300.52 36.16 300.33 35.99Q299.62 35.37 298.69 34.98Q297.52 34.5 296.09 34.5Q294.67 34.5 293.5 34.98Q292.63 35.35 291.94 35.92Q291.71 36.12 291.49 36.35Q291.43 36.42 291.37 36.49Q290.62 37.32 290.2 38.44Q289.74 39.65 289.74 41.1Q289.74 42.54 290.2 43.75Q290.61 44.85 291.34 45.67Q291.41 45.76 291.49 45.84Q291.7 46.06 291.93 46.25Q292.62 46.83 293.5 47.2Q294.67 47.67 296.09 47.67Q297.52 47.67 298.69 47.2Q299.62 46.81 300.34 46.18Q300.53 46.02 300.7 45.84Q300.78 45.76 300.85 45.67Q301.58 44.85 301.99 43.75ZM331.5 43.75Q331.96 42.54 331.96 41.1Q331.96 39.65 331.5 38.44Q331.07 37.32 330.33 36.49Q330.27 36.42 330.2 36.35Q330.03 36.16 329.83 35.99Q329.12 35.37 328.19 34.98Q327.02 34.5 325.59 34.5Q324.18 34.5 323 34.98Q322.13 35.35 321.45 35.92Q321.21 36.12 320.99 36.35Q320.93 36.42 320.87 36.49Q320.12 37.32 319.7 38.44Q319.24 39.65 319.24 41.1Q319.24 42.54 319.7 43.75Q320.12 44.85 320.84 45.67Q320.92 45.76 320.99 45.84Q321.2 46.06 321.43 46.25Q322.13 46.83 323 47.2Q324.18 47.67 325.59 47.67Q327.02 47.67 328.19 47.2Q329.13 46.81 329.85 46.18Q330.03 46.02 330.2 45.84Q330.28 45.76 330.36 45.67Q331.08 44.85 331.5 43.75ZM1.74 40.57L1.74 36.06L7.94 36.06L7.94 34.64L-4.58e-5 34.64L-4.58e-5 47.54L1.74 47.54L1.74 41.99L7.04 41.99L7.04 40.57L1.74 40.57ZM32.45 47.54L34 47.54L30.24 42.42Q29.99 42.06 29.66 41.87Q30.4 41.7 30.99 41.36Q31.59 41.03 31.99 40.56Q32.17 40.35 32.32 40.12Q32.5 39.82 32.62 39.49Q32.83 38.9 32.83 38.21Q32.83 37.4 32.55 36.74Q32.45 36.5 32.31 36.28Q32.07 35.9 31.7 35.61Q31.11 35.14 30.22 34.89Q29.34 34.64 28.11 34.64L24.47 34.64L24.47 47.54L26.2 47.54L26.2 42.15L27.52 42.15Q27.89 42.15 28.07 42.25Q28.25 42.34 28.4 42.56L31.75 47.17Q31.84 47.32 31.97 47.41Q32.16 47.54 32.45 47.54ZM61.17 45.89Q60.54 46.15 59.73 46.15Q58.93 46.15 58.3 45.88Q57.79 45.66 57.41 45.3Q57.32 45.22 57.23 45.12Q56.79 44.63 56.56 43.96Q56.33 43.28 56.33 42.47L56.33 34.64L54.6 34.64L54.6 42.48Q54.6 43.6 54.95 44.55Q55.25 45.35 55.76 45.97Q55.86 46.09 55.97 46.2Q56.05 46.29 56.14 46.37Q56.76 46.95 57.59 47.3Q58.55 47.69 59.73 47.69Q60.93 47.69 61.88 47.3Q62.74 46.94 63.36 46.34Q63.43 46.27 63.49 46.2Q63.6 46.09 63.7 45.97Q64.21 45.35 64.51 44.55Q64.87 43.6 64.87 42.48L64.87 34.64L63.13 34.64L63.13 42.48Q63.13 43.29 62.9 43.97Q62.67 44.64 62.24 45.12L62.23 45.13Q62.14 45.24 62.03 45.33Q61.66 45.67 61.17 45.89ZM75.98 47.54L77.53 47.54L73.77 42.42Q73.52 42.06 73.19 41.87Q73.94 41.7 74.52 41.36Q75.12 41.03 75.53 40.56Q75.71 40.35 75.85 40.12Q76.03 39.82 76.15 39.49Q76.37 38.9 76.37 38.21Q76.37 37.4 76.08 36.74Q75.99 36.5 75.85 36.28Q75.6 35.9 75.23 35.61Q74.65 35.14 73.76 34.89Q72.87 34.64 71.64 34.64L68 34.64L68 47.54L69.73 47.54L69.73 42.15L71.06 42.15Q71.43 42.15 71.6 42.25Q71.78 42.34 71.93 42.56L75.28 47.17Q75.37 47.32 75.5 47.41Q75.7 47.54 75.98 47.54ZM94.33 47.54L94.33 34.64L92.8 34.64L92.8 43.78Q92.8 43.97 92.81 44.19Q92.83 44.41 92.85 44.65L85.39 34.94Q85.31 34.85 85.25 34.79Q85.19 34.73 85.12 34.7Q85.06 34.67 84.98 34.65Q84.9 34.64 84.78 34.64L83.88 34.64L83.88 47.54L85.41 47.54L85.41 38.35Q85.41 38.16 85.4 37.94Q85.4 37.73 85.38 37.5L92.84 47.22Q92.97 47.39 93.11 47.47Q93.25 47.54 93.46 47.54L94.33 47.54ZM105.57 47.54L105.58 46.11L99.37 46.11L99.37 41.72L104.4 41.72L104.4 40.35L99.37 40.35L99.37 36.06L105.57 36.06L105.57 34.64L97.63 34.64L97.63 47.54L105.57 47.54ZM120.71 47.54L124.73 34.64L123.38 34.64Q123.2 34.64 123.07 34.71Q123.03 34.74 122.99 34.77Q122.84 34.89 122.79 35.05L122.79 35.05L120.12 44.02Q120.05 44.25 120 44.52Q119.94 44.79 119.9 45.09Q119.84 44.79 119.77 44.52Q119.7 44.25 119.62 44.02L116.6 35.05Q116.55 34.92 116.46 34.83Q116.42 34.79 116.38 34.76Q116.38 34.76 116.38 34.75Q116.24 34.64 116 34.64L115.5 34.64Q115.34 34.64 115.21 34.71Q115.16 34.73 115.12 34.77Q114.96 34.9 114.91 35.05L111.87 44.02Q111.79 44.25 111.72 44.54Q111.66 44.82 111.6 45.13Q111.54 44.82 111.48 44.55Q111.42 44.26 111.36 44.02L108.69 35.05Q108.68 34.98 108.64 34.92Q108.59 34.83 108.49 34.76Q108.47 34.75 108.46 34.73Q108.31 34.64 108.1 34.64L106.65 34.64L110.68 47.54L112.24 47.54L115.53 37.7Q115.57 37.56 115.62 37.4Q115.66 37.23 115.71 37.05Q115.75 37.23 115.79 37.4Q115.83 37.56 115.88 37.7L119.15 47.54L120.71 47.54ZM133.98 47.54L133.98 46.07L128.4 46.07L128.4 34.64L126.66 34.64L126.66 47.54L133.98 47.54ZM143.85 47.54L143.86 46.11L137.65 46.11L137.65 41.72L142.67 41.72L142.67 40.35L137.65 40.35L137.65 36.06L143.85 36.06L143.85 34.64L135.9 34.64L135.9 47.54L143.85 47.54ZM150.84 36.11L155.02 36.11L155.02 34.64L144.92 34.64L144.92 36.11L149.11 36.11L149.11 47.54L150.84 47.54L150.84 36.11ZM161.47 36.11L165.65 36.11L165.65 34.64L155.55 34.64L155.55 36.11L159.74 36.11L159.74 47.54L161.47 47.54L161.47 36.11ZM175.5 47.54L175.51 46.11L169.3 46.11L169.3 41.72L174.33 41.72L174.33 40.35L169.3 40.35L169.3 36.06L175.5 36.06L175.5 34.64L167.56 34.64L167.56 47.54L175.5 47.54ZM185.93 47.54L187.48 47.54L183.72 42.42Q183.48 42.06 183.14 41.87Q183.89 41.7 184.48 41.36Q185.07 41.03 185.48 40.56Q185.66 40.35 185.8 40.12Q185.98 39.82 186.1 39.49Q186.32 38.9 186.32 38.21Q186.32 37.4 186.04 36.74Q185.94 36.5 185.8 36.28Q185.55 35.9 185.18 35.61Q184.6 35.14 183.71 34.89Q182.82 34.64 181.6 34.64L177.95 34.64L177.95 47.54L179.69 47.54L179.69 42.15L181.01 42.15Q181.38 42.15 181.56 42.25Q181.73 42.34 181.89 42.56L185.23 47.17Q185.32 47.32 185.46 47.41Q185.65 47.54 185.93 47.54ZM202.37 47.54L203.72 47.54L198.56 34.64L196.8 34.64L191.64 47.54L192.99 47.54Q193.18 47.54 193.32 47.45Q193.34 47.43 193.37 47.41Q193.52 47.29 193.58 47.13L193.58 47.12L194.78 44.01L200.57 44.01L201.77 47.12Q201.83 47.26 201.92 47.36Q201.95 47.4 201.99 47.42Q202.13 47.54 202.37 47.54ZM215.87 47.54L215.87 34.64L214.34 34.64L214.34 43.78Q214.34 43.97 214.35 44.19Q214.37 44.41 214.39 44.65L206.92 34.94Q206.85 34.85 206.79 34.79Q206.73 34.73 206.66 34.7Q206.6 34.67 206.51 34.65Q206.44 34.64 206.32 34.64L205.42 34.64L205.42 47.54L206.95 47.54L206.95 38.35Q206.95 38.16 206.94 37.94Q206.93 37.73 206.91 37.5L214.38 47.22Q214.51 47.39 214.65 47.47Q214.79 47.54 215 47.54L215.87 47.54ZM229.88 43.73Q230.34 42.54 230.34 41.1Q230.34 39.65 229.88 38.46Q229.48 37.4 228.77 36.62Q228.68 36.52 228.59 36.42Q228.44 36.27 228.28 36.13Q227.54 35.49 226.57 35.11Q225.4 34.64 223.98 34.64L219.16 34.64L219.16 47.54L223.98 47.54Q225.4 47.54 226.57 47.08Q227.6 46.67 228.37 45.97Q228.48 45.87 228.59 45.77Q228.69 45.66 228.8 45.54Q229.48 44.76 229.88 43.73ZM243.39 34.93Q242.49 34.64 241.27 34.64L237.46 34.64L237.46 47.54L239.2 47.54L239.2 42.71L241.27 42.71Q242.44 42.71 243.33 42.41Q244.23 42.11 244.83 41.57Q245.14 41.3 245.37 40.97Q245.6 40.65 245.76 40.28Q246.07 39.54 246.07 38.64Q246.07 37.73 245.78 36.99Q245.64 36.63 245.42 36.31Q245.19 35.99 244.89 35.73Q244.3 35.21 243.39 34.93ZM256.25 47.54L257.8 47.54L254.04 42.42Q253.79 42.06 253.46 41.87Q254.21 41.7 254.8 41.36Q255.39 41.03 255.8 40.56Q255.98 40.35 256.12 40.12Q256.3 39.82 256.42 39.49Q256.64 38.9 256.64 38.21Q256.64 37.4 256.35 36.74Q256.26 36.5 256.12 36.28Q255.87 35.9 255.5 35.61Q254.92 35.14 254.03 34.89Q253.14 34.64 251.91 34.64L248.27 34.64L248.27 47.54L250.01 47.54L250.01 42.15L251.33 42.15Q251.7 42.15 251.87 42.25Q252.05 42.34 252.2 42.56L255.55 47.17Q255.64 47.32 255.77 47.41Q255.97 47.54 256.25 47.54ZM287.25 47.54L287.25 34.64L285.96 34.64Q285.73 34.64 285.59 34.69Q285.47 34.73 285.36 34.94L280.98 42.87Q280.87 43.08 280.76 43.32Q280.67 43.56 280.58 43.8Q280.49 43.56 280.38 43.33Q280.28 43.09 280.18 42.88L275.72 34.94Q275.6 34.73 275.47 34.69Q275.35 34.64 275.12 34.64L273.83 34.64L273.83 47.54L275.36 47.54L275.36 38.06Q275.36 37.65 275.31 37.18L279.82 45.28Q279.94 45.51 280.13 45.61Q280.27 45.68 280.45 45.68L280.7 45.68Q280.89 45.68 281.04 45.6Q281.22 45.5 281.34 45.28L285.76 37.22Q285.74 37.44 285.73 37.65Q285.72 37.87 285.72 38.06L285.72 47.54L287.25 47.54ZM308.92 36.11L313.09 36.11L313.09 34.64L303 34.64L303 36.11L307.18 36.11L307.18 47.54L308.92 47.54L308.92 36.11ZM315 47.54L316.75 47.54L316.75 34.64L315 34.64L315 47.54ZM344.9 47.54L344.9 34.64L343.37 34.64L343.37 43.78Q343.37 43.97 343.38 44.19Q343.4 44.41 343.42 44.65L335.96 34.94Q335.88 34.85 335.82 34.79Q335.76 34.73 335.69 34.7Q335.63 34.67 335.55 34.65Q335.47 34.64 335.35 34.64L334.45 34.64L334.45 47.54L335.98 47.54L335.98 38.35Q335.98 38.16 335.97 37.94Q335.97 37.73 335.95 37.5L343.41 47.22Q343.54 47.39 343.68 47.47Q343.82 47.54 344.03 47.54L344.9 47.54ZM19.86 38.96Q20.18 39.9 20.18 41.1Q20.18 42.28 19.86 43.22Q19.53 44.16 18.94 44.82Q18.76 45.01 18.57 45.17Q18.1 45.57 17.5 45.82Q16.65 46.16 15.61 46.16Q14.57 46.16 13.73 45.82Q13.17 45.59 12.72 45.23Q12.49 45.04 12.28 44.82Q11.68 44.16 11.36 43.22Q11.04 42.28 11.04 41.1Q11.04 39.9 11.36 38.96Q11.68 38.02 12.28 37.36Q12.5 37.13 12.75 36.93Q13.19 36.58 13.73 36.36Q14.57 36.01 15.61 36.01Q16.65 36.01 17.5 36.36Q18.08 36.6 18.54 36.98Q18.75 37.16 18.94 37.36Q19.53 38.02 19.86 38.96ZM50.15 38.96Q50.48 39.9 50.48 41.1Q50.48 42.28 50.15 43.22Q49.83 44.16 49.23 44.82Q49.06 45.01 48.86 45.17Q48.39 45.57 47.79 45.82Q46.95 46.16 45.9 46.16Q44.87 46.16 44.02 45.82Q43.47 45.59 43.02 45.23Q42.78 45.04 42.57 44.82Q41.98 44.16 41.65 43.22Q41.33 42.28 41.33 41.1Q41.33 39.9 41.65 38.96Q41.98 38.02 42.57 37.36Q42.79 37.13 43.05 36.93Q43.48 36.58 44.02 36.36Q44.87 36.01 45.9 36.01Q46.95 36.01 47.79 36.36Q48.37 36.6 48.83 36.98Q49.05 37.16 49.23 37.36Q49.83 38.02 50.15 38.96ZM269.22 38.96Q269.54 39.9 269.54 41.1Q269.54 42.28 269.22 43.22Q268.9 44.16 268.3 44.82Q268.13 45.01 267.93 45.17Q267.46 45.57 266.86 45.82Q266.02 46.16 264.97 46.16Q263.94 46.16 263.09 45.82Q262.54 45.59 262.09 45.23Q261.85 45.04 261.64 44.82Q261.05 44.16 260.72 43.22Q260.4 42.28 260.4 41.1Q260.4 39.9 260.72 38.96Q261.05 38.02 261.64 37.36Q261.86 37.13 262.12 36.93Q262.55 36.58 263.09 36.36Q263.94 36.01 264.97 36.01Q266.02 36.01 266.86 36.36Q267.44 36.6 267.9 36.98Q268.12 37.16 268.3 37.36Q268.9 38.02 269.22 38.96ZM300.34 38.96Q300.67 39.9 300.67 41.1Q300.67 42.28 300.34 43.22Q300.02 44.16 299.42 44.82Q299.25 45.01 299.05 45.17Q298.58 45.57 297.98 45.82Q297.14 46.16 296.09 46.16Q295.06 46.16 294.21 45.82Q293.66 45.59 293.21 45.23Q292.97 45.04 292.77 44.82Q292.17 44.16 291.84 43.22Q291.52 42.28 291.52 41.1Q291.52 39.9 291.84 38.96Q292.17 38.02 292.77 37.36Q292.99 37.13 293.24 36.93Q293.68 36.58 294.21 36.36Q295.06 36.01 296.09 36.01Q297.14 36.01 297.98 36.36Q298.56 36.6 299.03 36.98Q299.24 37.16 299.42 37.36Q300.02 38.02 300.34 38.96ZM329.84 38.96Q330.17 39.9 330.17 41.1Q330.17 42.28 329.84 43.22Q329.52 44.16 328.93 44.82Q328.75 45.01 328.56 45.17Q328.08 45.57 327.48 45.82Q326.64 46.16 325.59 46.16Q324.56 46.16 323.71 45.82Q323.16 45.59 322.71 45.23Q322.48 45.04 322.27 44.82Q321.67 44.16 321.35 43.22Q321.02 42.28 321.02 41.1Q321.02 39.9 321.35 38.96Q321.67 38.02 322.27 37.36Q322.49 37.13 322.74 36.93Q323.18 36.58 323.71 36.36Q324.56 36.01 325.59 36.01Q326.64 36.01 327.48 36.36Q328.07 36.6 328.53 36.98Q328.74 37.16 328.93 37.36Q329.52 38.02 329.84 38.96ZM29.37 40.7Q28.79 40.89 28.04 40.89L26.2 40.89L26.2 36.02L28.11 36.02Q29.62 36.02 30.38 36.6Q30.58 36.76 30.73 36.96Q31.13 37.5 31.13 38.34Q31.13 38.91 30.93 39.38Q30.86 39.56 30.75 39.72Q30.58 39.98 30.35 40.18Q29.95 40.52 29.37 40.7ZM72.91 40.7Q72.33 40.89 71.57 40.89L69.73 40.89L69.73 36.02L71.64 36.02Q73.15 36.02 73.91 36.6Q74.11 36.76 74.26 36.96Q74.67 37.5 74.67 38.34Q74.67 38.91 74.47 39.38Q74.39 39.56 74.28 39.72Q74.12 39.98 73.88 40.18Q73.49 40.52 72.91 40.7ZM182.86 40.7Q182.28 40.89 181.53 40.89L179.69 40.89L179.69 36.02L181.6 36.02Q183.11 36.02 183.86 36.6Q184.07 36.76 184.21 36.96Q184.62 37.5 184.62 38.34Q184.62 38.91 184.42 39.38Q184.34 39.56 184.24 39.72Q184.07 39.98 183.83 40.18Q183.44 40.52 182.86 40.7ZM242.58 41.13Q242.01 41.33 241.27 41.33L239.2 41.33L239.2 36.02L241.27 36.02Q242.81 36.02 243.57 36.71Q243.75 36.87 243.88 37.06Q244.33 37.69 244.33 38.64Q244.33 39.23 244.14 39.73Q244.03 39.98 243.88 40.2Q243.74 40.4 243.55 40.58Q243.16 40.93 242.58 41.13ZM253.18 40.7Q252.6 40.89 251.84 40.89L250.01 40.89L250.01 36.02L251.91 36.02Q253.42 36.02 254.18 36.6Q254.38 36.76 254.53 36.96Q254.94 37.5 254.94 38.34Q254.94 38.91 254.74 39.38Q254.66 39.56 254.55 39.72Q254.39 39.98 254.15 40.18Q253.76 40.52 253.18 40.7ZM228.22 38.97Q228.55 39.9 228.55 41.1Q228.55 42.28 228.22 43.22Q227.9 44.15 227.31 44.8Q227.15 44.97 226.98 45.12Q226.49 45.53 225.87 45.78Q225.02 46.12 223.98 46.12L220.91 46.12L220.91 36.06L223.98 36.06Q225.02 36.06 225.87 36.4Q226.44 36.63 226.9 37Q227.12 37.18 227.31 37.39Q227.9 38.03 228.22 38.97ZM198.06 37.5L200.08 42.75L195.27 42.75L197.29 37.51Q197.49 37.03 197.68 36.3Q197.77 36.65 197.87 36.96Q197.97 37.27 198.06 37.5Z" fill="#222224" fill-opacity="1.000000" fill-rule="evenodd"/>
</svg>
